<svg width="140" height="116" viewBox="0 0 140 116" fill="none" xmlns="http://www.w3.org/2000/svg">
<path d="M2.09709 54.0472C16.3875 46.1847 32.4133 39.5475 47.3162 32.9103C73.039 22.0866 98.7618 11.365 124.893 1.46029C129.997 -0.275586 139.081 -1.90936 140 5.64682C139.49 16.2663 137.55 26.8858 136.121 37.4032C132.651 60.6844 128.568 83.8634 124.587 107.043C123.26 114.803 113.563 118.785 107.336 113.782C92.4332 103.775 77.5303 93.7682 62.8315 83.5571C58.034 78.6558 62.5253 71.6102 66.8124 68.1384C79.0614 56.0894 92.0249 45.7762 103.661 33.1145C106.826 25.5584 97.5369 31.8892 94.4747 33.8293C77.7345 45.3678 61.4025 57.621 43.6415 67.8321C34.6589 72.8355 24.0432 68.5469 15.0606 65.7899C6.99668 62.5223 -4.84399 59.1527 2.09709 54.0472Z" fill="white"/>
</svg>
