<svg width="170" height="170" viewBox="0 0 170 170" fill="none" xmlns="http://www.w3.org/2000/svg">
<g clip-path="url(#clip0_739_12054)">
<rect width="170" height="170" rx="14" fill="black"/>
<path d="M54.382 112.584C52.2473 115.845 49.3554 118.599 45.8002 120.198C30.1241 127.249 11.0607 124.343 -1.82269 111.478C14.8028 128.133 14.7946 155.114 -1.84751 171.758C-1.89159 171.802 -1.93585 171.846 -1.9801 171.89L-1.98083 171.89L-1.98239 171.892L-2 171.909L-1.9991 171.91C-1.94872 171.859 -1.8982 171.809 -1.84751 171.758C14.799 155.109 41.7859 155.105 58.4372 171.746C45.314 158.611 42.5437 139.046 50.1263 123.196C51.7597 119.782 54.468 117.015 57.6492 114.965C93.0182 92.1672 140.678 96.2449 171.65 127.197C135.998 91.513 136.006 33.6791 171.675 -1.9949C171.865 -2.1845 172.055 -2.37309 172.246 -2.56067L172.241 -2.56592C172.053 -2.37507 171.865 -2.1845 171.675 -1.9949C136.015 33.6697 78.2102 33.6872 42.5281 -1.94166C73.6077 29.1925 77.559 77.1673 54.382 112.584Z" fill="#D7FF61"/>
<path d="M171.931 127.477C171.986 127.532 172.041 127.586 172.096 127.641L172.093 127.643C172.023 127.572 171.952 127.5 171.881 127.429C171.821 127.368 171.761 127.308 171.7 127.248C171.777 127.324 171.854 127.401 171.931 127.477Z" fill="#D7FF61"/>
<path d="M58.4607 171.77C58.5221 171.831 58.5836 171.892 58.6453 171.953L58.6441 171.954C58.5832 171.893 58.522 171.831 58.4607 171.77Z" fill="#D7FF61"/>
</g>
<defs>
<clipPath id="clip0_739_12054">
<rect width="170" height="170" rx="14" fill="white"/>
</clipPath>
</defs>
</svg>
