<svg width="44" height="43" viewBox="0 0 44 43" fill="none" xmlns="http://www.w3.org/2000/svg">
<path d="M22 41.036C33.0457 41.036 42 36.6667 42 31.2768C42 25.8869 33.0457 21.5176 22 21.5176C10.9543 21.5176 2 25.8869 2 31.2768C2 36.6667 10.9543 41.036 22 41.036Z" stroke="white" stroke-width="2.4" stroke-miterlimit="10"/>
<path d="M22 31.2782C33.0457 31.2782 42 26.9089 42 21.519C42 16.1291 33.0457 11.7598 22 11.7598C10.9543 11.7598 2 16.1291 2 21.519C2 26.9089 10.9543 31.2782 22 31.2782Z" stroke="white" stroke-width="2.4" stroke-miterlimit="10"/>
<path d="M22 21.5185C33.0457 21.5185 42 17.1491 42 11.7592C42 6.36936 33.0457 2 22 2C10.9543 2 2 6.36936 2 11.7592C2 17.1491 10.9543 21.5185 22 21.5185Z" stroke="white" stroke-width="2.4" stroke-miterlimit="10"/>
</svg>
