<svg width="188" height="185" viewBox="0 0 188 185" fill="none" xmlns="http://www.w3.org/2000/svg">
<ellipse cx="94" cy="92.231" rx="94" ry="91.8677" fill="black"/>
<path d="M179.341 109.851L177.343 109.595L177.932 105.203L166.25 103.703L166.552 101.469L178.233 102.965L178.822 98.5723L180.82 98.828L179.341 109.851Z" fill="white"/>
<path d="M175.356 123.308L162.18 119.314L162.864 117.16L168.748 118.945L170.63 113.013L164.746 111.228L165.436 109.059L178.612 113.053L177.923 115.222L172.558 113.594L170.675 119.526L176.04 121.154L175.356 123.308Z" fill="white"/>
<path d="M172.581 129.226L160.039 123.609L161.005 121.543L173.548 127.16L172.581 129.226Z" fill="white"/>
<path d="M164.714 142.531L153.027 135.364L154.799 132.605L161.276 133.136C163.561 133.328 165.756 133.549 167.854 133.795L167.875 133.76C166.063 132.737 164.266 131.685 162.494 130.598L157.899 127.779L159.092 125.92L170.779 133.087L168.997 135.861L162.53 135.315C160.245 135.123 158.05 134.902 155.951 134.656L155.931 134.69C157.934 135.846 159.726 136.904 161.302 137.873L165.897 140.691L164.714 142.536V142.531Z" fill="white"/>
<path d="M154.895 153.618L153.802 145.227L144.32 144.942L146.333 142.763L154.839 143.254L154.864 143.225L149.937 138.867L151.497 137.18L161.729 146.225L160.169 147.913L155.614 143.884L155.589 143.914L156.767 151.592L154.895 153.613V153.618Z" fill="white"/>
<path d="M146.335 158.656C146.114 160.324 145.193 161.701 143.557 162.793C141.926 163.88 140.276 164.224 138.605 163.816C136.934 163.408 135.474 162.311 134.221 160.515C132.968 158.72 132.449 156.994 132.671 155.326C132.892 153.659 133.818 152.281 135.449 151.189C137.08 150.102 138.731 149.758 140.401 150.166C142.072 150.575 143.532 151.676 144.785 153.467C146.038 155.262 146.557 156.989 146.335 158.656ZM139.204 161.612C140.311 161.957 141.373 161.794 142.389 161.116C143.401 160.437 143.945 159.532 144.02 158.395C144.096 157.259 143.688 156.059 142.802 154.785C141.911 153.511 140.915 152.704 139.803 152.36C138.695 152.016 137.633 152.178 136.617 152.857C135.6 153.536 135.061 154.441 134.986 155.577C134.91 156.713 135.318 157.918 136.209 159.187C137.1 160.456 138.096 161.268 139.209 161.612H139.204Z" fill="white"/>
<path d="M126.967 171.183L124.859 172.093L121.391 164.419C120.671 162.826 120.535 161.429 120.988 160.224C121.441 159.023 122.448 158.084 124.008 157.41C125.568 156.736 126.957 156.643 128.175 157.125C129.393 157.607 130.365 158.645 131.084 160.238L134.552 167.912L132.423 168.831L128.991 161.227C128.528 160.199 127.939 159.52 127.224 159.196C126.509 158.866 125.719 158.891 124.843 159.269C123.968 159.648 123.414 160.204 123.183 160.937C122.951 161.67 123.067 162.555 123.53 163.583L126.962 171.188L126.967 171.183Z" fill="white"/>
<path d="M110.764 175.893L110.266 173.984L114.659 172.892L111.76 161.732L113.995 161.176L116.894 172.337L121.288 171.245L121.786 173.153L110.764 175.888V175.893Z" fill="white"/>
<path d="M103.278 177.016C101.617 177.163 100.329 176.902 99.4029 176.229C98.4768 175.555 97.9483 174.497 97.8124 173.051L100.148 172.844C100.228 173.686 100.525 174.305 101.039 174.694C101.557 175.083 102.257 175.24 103.147 175.161C103.892 175.092 104.466 174.881 104.869 174.522C105.271 174.163 105.442 173.705 105.392 173.154C105.337 172.574 105.075 172.171 104.597 171.93C104.119 171.693 103.273 171.482 102.05 171.3C101.421 171.202 100.903 171.118 100.51 171.039C100.112 170.961 99.6746 170.833 99.2015 170.651C98.7284 170.469 98.3459 170.262 98.0641 170.021C97.7822 169.78 97.5356 169.455 97.3242 169.052C97.1129 168.644 96.977 168.167 96.9266 167.616C96.8109 166.371 97.1884 165.333 98.054 164.502C98.9247 163.671 100.133 163.184 101.673 163.051C103.359 162.899 104.708 163.189 105.724 163.917C106.741 164.645 107.315 165.771 107.461 167.291L105.09 167.503C104.914 165.604 103.827 164.743 101.834 164.92C100.983 164.994 100.334 165.235 99.886 165.643C99.4381 166.052 99.2418 166.568 99.3022 167.198C99.3626 167.827 99.6193 168.255 100.082 168.477C100.545 168.703 101.386 168.905 102.609 169.087C103.268 169.19 103.787 169.283 104.159 169.357C104.536 169.431 104.974 169.559 105.468 169.736C105.966 169.913 106.348 170.119 106.615 170.356C106.882 170.592 107.128 170.911 107.345 171.32C107.566 171.723 107.697 172.2 107.748 172.736C107.853 173.882 107.501 174.846 106.686 175.633C105.87 176.42 104.738 176.883 103.283 177.011L103.278 177.016Z" fill="white"/>
<path d="M92.0547 177.059L92.3516 163.576L94.6769 163.625L94.3799 177.108L92.0547 177.059Z" fill="white"/>
<path d="M89.7954 163.63L87.7772 176.97L83.4086 176.335C81.1236 176.006 79.4476 175.17 78.3806 173.837C77.3187 172.504 76.9462 170.767 77.2684 168.633C77.5905 166.498 78.4612 164.944 79.8754 163.965C81.2897 162.991 83.1418 162.666 85.4268 162.996L89.7954 163.63ZM83.7357 174.393L85.7841 174.688L87.2135 165.244L85.16 164.948C81.954 164.486 80.112 165.824 79.6338 168.972C79.1557 172.12 80.5247 173.925 83.7307 174.388L83.7357 174.393Z" fill="white"/>
<path d="M63.6925 171.439L64.3217 169.57L70.8746 171.68L72.0422 168.207L65.897 166.23L66.5211 164.375L72.6663 166.353L73.9246 162.61L67.1904 160.445L67.8196 158.576L76.7631 161.454L72.4499 174.262L63.6875 171.444L63.6925 171.439Z" fill="white"/>
<path d="M46.457 162.526L47.4888 160.834L51.3843 163.102L57.4088 153.205L59.3918 154.356L53.3673 164.248L57.2628 166.515L56.231 168.207L46.457 162.521V162.526Z" fill="white"/>
<path d="M35.3984 153.65L44.347 143.385L46.1036 144.846L42.1074 149.43L46.9441 153.458L50.9402 148.874L52.7118 150.35L43.7632 160.615L41.9916 159.14L45.6355 154.959L40.7988 150.93L37.1549 155.111L35.3984 153.65Z" fill="white"/>
<path d="M26.2031 143.365L27.7482 142.101L32.1722 147.276L35.041 144.934L30.8938 140.079L32.4239 138.83L36.571 143.685L39.6663 141.161L35.1215 135.844L36.6667 134.58L42.7062 141.643L32.1169 150.291L26.2031 143.375V143.365Z" fill="white"/>
<path d="M33.1633 129.293L20.8879 135.452L18.7187 131.325C17.9889 129.933 17.7171 128.743 17.9134 127.759C18.1097 126.775 18.6885 126.037 19.6548 125.555C21.0439 124.857 22.3575 125.058 23.5855 126.16L23.6208 126.14C23.1779 124.419 23.7365 123.165 25.2867 122.387C26.3235 121.871 27.3301 121.822 28.3165 122.25C29.303 122.678 30.1385 123.538 30.8129 124.827L33.1582 129.293H33.1633ZM20.4349 130.484L21.5321 132.574L25.03 130.818L23.9882 128.831C23.1628 127.257 22.1612 126.765 20.9885 127.355C19.8259 127.936 19.6447 128.984 20.4349 130.489V130.484ZM25.634 127.98L26.6858 129.987L30.375 128.137L29.2527 125.998C28.8198 125.176 28.3568 124.65 27.8585 124.419C27.3603 124.188 26.8016 124.227 26.1775 124.537C25.5585 124.847 25.1961 125.28 25.0954 125.835C24.9948 126.391 25.176 127.105 25.634 127.98Z" fill="white"/>
<path d="M16.1433 121.912C14.5781 121.214 13.5061 119.94 12.9222 118.095C12.3384 116.251 12.4995 114.608 13.3903 113.172C14.2811 111.735 15.791 110.697 17.9149 110.058C20.0388 109.419 21.8809 109.448 23.4462 110.147C25.0114 110.845 26.0834 112.119 26.6622 113.964C27.241 115.808 27.085 117.451 26.1942 118.887C25.3033 120.324 23.7934 121.361 21.6695 122.001C19.5456 122.64 17.7036 122.611 16.1383 121.912H16.1433ZM15.3632 114.382C14.6989 115.316 14.5479 116.354 14.9052 117.5C15.2676 118.646 15.9923 119.423 17.0795 119.832C18.1666 120.24 19.4651 120.215 20.9699 119.763C22.4748 119.31 23.5619 118.617 24.2263 117.682C24.8906 116.748 25.0466 115.71 24.6843 114.564C24.3219 113.418 23.6022 112.64 22.51 112.237C21.4229 111.829 20.1244 111.853 18.6196 112.306C17.1147 112.758 16.0276 113.452 15.3632 114.387V114.382Z" fill="white"/>
<path d="M9.423 98.8916L16.6705 102.192L23.0674 96.8945L23.4247 99.5212L18.6233 103.314V103.353L24.2753 105.793L24.6326 108.439L17.0429 104.932L10.9228 109.983L10.5705 107.376L15.1857 103.801V103.761L9.77028 101.484L9.41797 98.8916H9.423Z" fill="white"/>
<path d="M11.1307 75.7969L13.1237 76.0772L12.4745 80.4648L24.1359 82.1126L23.8037 84.3457L12.1423 82.6979L11.4931 87.0855L9.5 86.8051L11.1256 75.8018L11.1307 75.7969Z" fill="white"/>
<path d="M15.2879 62.4004L28.4088 66.5617L27.6992 68.7063L21.8358 66.847L19.8729 72.7545L25.7313 74.6138L25.0166 76.7731L11.8906 72.6118L12.6103 70.4525L17.9553 72.1495L19.9182 66.242L14.5732 64.545L15.2828 62.4004H15.2879Z" fill="white"/>
<path d="M18.145 56.5127L30.6116 62.2874L29.6151 64.3385L17.1484 58.5639L18.145 56.5078V56.5127Z" fill="white"/>
<path d="M26.1649 43.3136L37.7558 50.6278L35.9489 53.3627L29.4816 52.7528C27.1966 52.5314 25.0073 52.2855 22.9136 52.01L22.8934 52.0395C24.6952 53.0872 26.4719 54.1645 28.2334 55.2712L32.7933 58.1487L31.5753 59.9932L19.9844 52.679L21.8013 49.9245L28.2586 50.5491C30.5385 50.7705 32.7278 51.0213 34.8266 51.287L34.8467 51.2525C32.8587 50.072 31.0821 48.9899 29.5218 48.0061L24.962 45.1286L26.1699 43.2988L26.1649 43.3136Z" fill="white"/>
<path d="M36.148 32.3418L37.1294 40.748L46.6065 41.1514L44.5631 43.3058L36.0675 42.7057L36.0423 42.7352L40.9142 47.1523L39.3339 48.8198L29.2227 39.6462L30.803 37.9787L35.3025 42.0613L35.3276 42.0318L34.2506 34.3388L36.148 32.3418Z" fill="white"/>
<path d="M44.7606 27.417C45.0022 25.7545 45.9434 24.387 47.5891 23.3147C49.2349 22.2474 50.8908 21.9276 52.5567 22.3556C54.2226 22.7835 55.667 23.9001 56.8951 25.7102C58.1231 27.5203 58.6214 29.2567 58.3798 30.9192C58.1382 32.5818 57.1971 33.9492 55.5513 35.0215C53.9055 36.0889 52.2497 36.4086 50.5838 35.9806C48.9229 35.5527 47.4734 34.4361 46.2453 32.626C45.0173 30.8159 44.5241 29.0796 44.7606 27.417ZM51.9276 24.5494C50.8203 24.1903 49.7583 24.3428 48.7367 25.0068C47.715 25.6708 47.1563 26.571 47.0707 27.7023C46.9801 28.8386 47.3727 30.0437 48.2434 31.3275C49.1141 32.6113 50.1056 33.4327 51.2078 33.7918C52.3151 34.1509 53.377 33.9984 54.3987 33.3343C55.4204 32.6703 55.9791 31.7702 56.0646 30.6388C56.1552 29.5026 55.7627 28.2975 54.892 27.0137C54.0213 25.7299 53.0298 24.9084 51.9276 24.5494Z" fill="white"/>
<path d="M64.294 15.1402L66.4129 14.2598L69.78 21.9774C70.4796 23.5809 70.5953 24.9778 70.1272 26.178C69.6592 27.3733 68.6375 28.298 67.0722 28.9522C65.502 29.6064 64.1129 29.6851 62.8999 29.1883C61.687 28.6915 60.7307 27.6438 60.0311 26.0403L56.6641 18.3227L58.8031 17.4324L62.1399 25.0811C62.5929 26.1141 63.1717 26.8027 63.8813 27.1372C64.591 27.4717 65.3812 27.4569 66.2619 27.0929C67.1427 26.7289 67.7014 26.178 67.9429 25.4451C68.1845 24.7122 68.0839 23.8318 67.6309 22.7988L64.294 15.1501V15.1402Z" fill="white"/>
<path d="M80.5546 10.625L81.0277 12.5384L76.6189 13.5714L79.3719 24.7665L77.1272 25.2929L74.3742 14.0977L69.9653 15.1355L69.4922 13.2221L80.5496 10.625H80.5546Z" fill="white"/>
<path d="M88.0643 9.60233C89.7252 9.47444 91.0136 9.75481 91.9296 10.4385C92.8456 11.1222 93.364 12.1896 93.4798 13.6357L91.1445 13.8128C91.079 12.9717 90.7871 12.3519 90.2788 11.9486C89.7654 11.5502 89.0659 11.3879 88.1801 11.4518C87.4352 11.5108 86.8564 11.7125 86.4487 12.0666C86.041 12.4208 85.8599 12.8733 85.9052 13.4292C85.9504 14.0096 86.2122 14.4178 86.6853 14.6589C87.1584 14.8999 88.0039 15.1212 89.2269 15.318C89.856 15.4213 90.3694 15.5147 90.767 15.5983C91.1646 15.682 91.5974 15.8148 92.0705 16.0017C92.5436 16.1886 92.9211 16.4001 93.203 16.6461C93.4798 16.892 93.7264 17.2166 93.9327 17.6249C94.1391 18.0332 94.2649 18.5152 94.3102 19.0661C94.4109 20.3106 94.0183 21.3435 93.1375 22.1649C92.2568 22.9864 91.0438 23.4537 89.4987 23.5717C87.8126 23.6996 86.4638 23.3946 85.4622 22.6568C84.4557 21.919 83.892 20.7877 83.7712 19.2629L86.1467 19.0809C86.2977 20.9795 87.3748 21.8551 89.3678 21.7026C90.2184 21.6386 90.8677 21.4025 91.3257 21.0041C91.7786 20.6008 91.9799 20.0843 91.9296 19.4596C91.8793 18.8349 91.6226 18.4021 91.1646 18.1709C90.7066 17.9397 89.8661 17.7233 88.6431 17.5265C87.9838 17.4134 87.4704 17.315 87.0929 17.2363C86.7155 17.1576 86.2826 17.0248 85.7894 16.8428C85.2962 16.6608 84.9137 16.4493 84.6519 16.2083C84.3852 15.9673 84.1486 15.6475 83.9322 15.2393C83.7208 14.831 83.59 14.3588 83.5447 13.8177C83.4541 12.6717 83.8215 11.7125 84.6469 10.9304C85.4723 10.1532 86.6148 9.70563 88.0693 9.59741L88.0643 9.60233Z" fill="white"/>
<path d="M99.2827 9.69784L98.8096 23.1753L96.4844 23.0966L96.9575 9.61914L99.2827 9.69784Z" fill="white"/>
<path d="M101.363 23.1579L103.563 9.84766L107.926 10.5363C110.206 10.8954 111.872 11.7512 112.919 13.099C113.966 14.4467 114.313 16.188 113.961 18.3178C113.608 20.4477 112.718 21.9922 111.293 22.9513C109.869 23.9105 108.012 24.2056 105.727 23.8466L101.363 23.1579ZM107.564 12.4743L105.515 12.1497L103.96 21.5741L106.009 21.8987C109.21 22.4054 111.072 21.0871 111.59 17.944C112.109 14.8009 110.77 12.9809 107.564 12.4743Z" fill="white"/>
<path d="M127.576 15.6757L126.922 17.5399L120.399 15.351L119.187 18.8089L125.307 20.865L124.657 22.7096L118.537 20.6535L117.229 24.377L123.938 26.6298L123.283 28.4941L114.375 25.5034L118.859 12.7539L127.581 15.6806L127.576 15.6757Z" fill="white"/>
<path d="M144.681 24.8091L143.629 26.4913L139.764 24.1746L133.609 33.9925L131.641 32.8169L137.796 22.999L133.931 20.6822L134.983 19L144.681 24.8091Z" fill="white"/>
<path d="M155.623 33.8095L146.544 43.9619L144.807 42.4813L148.864 37.9462L144.078 33.8587L140.021 38.3938L138.27 36.8985L147.349 26.7461L149.1 28.2414L145.401 32.3781L150.188 36.4656L153.887 32.3289L155.623 33.8095Z" fill="white"/>
<path d="M164.692 44.2201L163.127 45.4645L158.774 40.2359L155.875 42.5428L159.961 47.4468L158.411 48.6765L154.324 43.7725L151.199 46.2565L155.673 51.6327L154.108 52.8772L148.164 45.74L158.864 37.2305L164.687 44.2201H164.692Z" fill="white"/>
<path d="M157.543 58.1982L169.899 52.1973L172.013 56.3536C172.727 57.7555 172.979 58.9459 172.773 59.9296C172.566 60.9134 171.978 61.6364 171.006 62.1086C169.607 62.7874 168.298 62.571 167.08 61.4544L167.045 61.4692C167.463 63.1957 166.889 64.4402 165.329 65.1976C164.287 65.7043 163.276 65.7338 162.294 65.296C161.313 64.8583 160.492 63.9876 159.828 62.6841L157.543 58.1884V58.1982ZM165.052 59.605L164.025 57.5883L160.311 59.3935L161.408 61.5479C161.826 62.3743 162.284 62.9055 162.782 63.1416C163.276 63.3777 163.839 63.3482 164.463 63.0432C165.087 62.7383 165.455 62.3103 165.56 61.7594C165.666 61.2085 165.5 60.4904 165.052 59.605ZM170.281 57.1702L169.209 55.0649L165.686 56.7767L166.703 58.7786C167.508 60.3625 168.5 60.8642 169.682 60.2936C170.85 59.723 171.051 58.6852 170.281 57.1702Z" fill="white"/>
<path d="M174.462 65.7934C176.017 66.5116 177.074 67.7954 177.628 69.6498C178.182 71.5042 178.005 73.1421 177.094 74.5686C176.183 75.995 174.663 77.0132 172.53 77.6231C170.396 78.2331 168.553 78.179 166.998 77.4608C165.443 76.7427 164.386 75.4539 163.833 73.6045C163.274 71.7501 163.455 70.1121 164.366 68.6857C165.277 67.2592 166.797 66.241 168.931 65.6311C171.065 65.0212 172.907 65.0753 174.462 65.7934ZM175.142 73.334C175.821 72.4092 175.987 71.3714 175.64 70.2204C175.293 69.0694 174.583 68.2823 173.501 67.8642C172.419 67.4461 171.12 67.4511 169.61 67.8839C168.101 68.3168 167.003 68.9956 166.324 69.9203C165.644 70.845 165.478 71.8829 165.826 73.0339C166.173 74.1849 166.883 74.9719 167.965 75.39C169.047 75.8081 170.345 75.8032 171.855 75.3703C173.365 74.9375 174.462 74.2587 175.142 73.334Z" fill="white"/>
<path d="M180.878 88.8948L173.671 85.5008L167.203 90.7196L166.881 88.0881L171.733 84.3547V84.3154L166.111 81.8068L165.789 79.1556L173.333 82.7561L179.519 77.7832L179.836 80.3951L175.171 83.912V83.9514L180.556 86.2976L180.873 88.8948H180.878Z" fill="white"/>
<path fill-rule="evenodd" clip-rule="evenodd" d="M118.85 55.5801L70.9841 55.5801L52.7344 126.905L137.035 126.905L118.85 55.5801Z" fill="white"/>
</svg>
