<svg width="189" height="184" viewBox="0 0 189 184" fill="none" xmlns="http://www.w3.org/2000/svg">
<ellipse cx="94.2188" cy="91.8677" rx="94" ry="91.8677" fill="#FF4C21"/>
<path d="M93.3841 41.834L101.027 58.327L115.235 46.7081L114.798 64.8086L132.758 60.3652L124.329 76.4881L142.482 80.1001L127.73 91.0522L142.482 102.004L124.329 105.616L132.758 121.739L114.798 117.296L115.235 135.396L101.027 123.777L93.3841 140.27L85.7414 123.777L71.5334 135.396L71.9697 117.296L54.0105 121.739L62.4394 105.616L44.2861 102.004L59.0381 91.0522L44.2861 80.1001L62.4394 76.4881L54.0105 60.3652L71.9697 64.8086L71.5334 46.7081L85.7414 58.327L93.3841 41.834Z" fill="black"/>
<path d="M167.778 106.792L170.943 106.269L171.693 101.792L168.86 100.309L169.18 98.3965L179.581 104.1L179.171 106.546L167.453 108.71L167.773 106.797L167.778 106.792ZM173.22 102.597L172.654 105.982L173.572 105.833C175.519 105.52 177.062 105.289 178.206 105.141V105.11C176.5 104.284 175.11 103.592 174.044 103.023L173.22 102.597Z" fill="black"/>
<path d="M175.074 121.488L164.395 118.164L165.213 115.641L170.419 114.774C172.256 114.471 174.029 114.21 175.73 113.989L175.74 113.959C174.103 113.512 172.471 113.041 170.849 112.538L166.651 111.23L167.202 109.527L177.881 112.846L177.057 115.384L171.857 116.236C170.02 116.533 168.246 116.8 166.546 117.02L166.536 117.051C168.351 117.564 169.978 118.041 171.421 118.487L175.619 119.795L175.068 121.482L175.074 121.488Z" fill="black"/>
<path d="M160.293 126.634L163.478 127.024L165.515 122.942L163.237 120.726L164.108 118.982L172.4 127.363L171.287 129.589L159.422 128.373L160.293 126.629V126.634ZM166.737 124.142L165.2 127.224L166.123 127.337C168.081 127.583 169.624 127.794 170.762 127.973L170.778 127.947C169.382 126.675 168.254 125.619 167.398 124.783L166.737 124.142Z" fill="black"/>
<path d="M167.201 136.626L159.183 131.513L156.17 136.021L154.801 135.149L158.847 129.092L168.235 135.077L167.201 136.621V136.626Z" fill="black"/>
<path d="M158.399 148.159L155.638 141.061L152.133 138.301L153.319 136.865L156.824 139.624L164.517 140.743L163.174 142.373L160.676 141.948C159.611 141.768 158.546 141.553 157.48 141.307L157.459 141.332C157.963 142.358 158.399 143.333 158.766 144.261L159.732 146.543L158.399 148.159Z" fill="black"/>
<path d="M150.504 155.668L149.376 154.509L152.042 152.022L145.43 145.257L146.784 143.99L153.396 150.755L156.062 148.268L157.195 149.427L150.51 155.663L150.504 155.668Z" fill="black"/>
<path d="M147.387 158.017L140.387 149.463L141.861 148.309L148.862 156.863L147.387 158.017Z" fill="black"/>
<path d="M141.235 162.574C140.106 163.292 138.994 163.559 137.897 163.374C136.8 163.189 135.898 162.62 135.194 161.656L136.79 160.64C137.267 161.205 137.818 161.538 138.438 161.64C139.062 161.738 139.687 161.589 140.311 161.194C141.114 160.687 141.539 159.984 141.597 159.086C141.649 158.189 141.324 157.214 140.621 156.153C139.917 155.096 139.136 154.409 138.28 154.091C137.425 153.773 136.606 153.86 135.819 154.358C135.194 154.753 134.801 155.255 134.633 155.866C134.465 156.471 134.549 157.117 134.88 157.804L133.258 158.835C132.649 157.717 132.492 156.64 132.781 155.604C133.069 154.568 133.778 153.696 134.901 152.978C136.192 152.157 137.498 151.937 138.805 152.311C140.117 152.691 141.266 153.624 142.253 155.112C143.245 156.599 143.643 158.009 143.46 159.338C143.276 160.666 142.531 161.748 141.229 162.574H141.235Z" fill="black"/>
<path d="M131.637 167.836C130.414 168.406 129.354 168.559 128.457 168.303C127.56 168.047 126.851 167.385 126.332 166.318L128.053 165.518C128.357 166.139 128.761 166.528 129.265 166.682C129.774 166.841 130.351 166.764 131.007 166.462C131.558 166.205 131.936 165.887 132.136 165.503C132.34 165.118 132.34 164.723 132.141 164.318C131.936 163.892 131.616 163.651 131.18 163.605C130.75 163.554 130.042 163.631 129.055 163.826C128.546 163.928 128.126 164 127.806 164.051C127.481 164.097 127.108 164.123 126.694 164.113C126.279 164.108 125.927 164.051 125.644 163.944C125.361 163.836 125.077 163.656 124.799 163.405C124.521 163.154 124.28 162.826 124.086 162.415C123.639 161.497 123.629 160.605 124.049 159.733C124.474 158.861 125.256 158.158 126.389 157.63C127.633 157.056 128.746 156.902 129.727 157.179C130.708 157.456 131.474 158.153 132.02 159.271L130.273 160.082C129.59 158.682 128.515 158.323 127.05 159.01C126.426 159.302 126.001 159.661 125.775 160.097C125.55 160.533 125.55 160.979 125.775 161.441C126.001 161.902 126.321 162.159 126.736 162.205C127.155 162.251 127.853 162.174 128.84 161.979C129.375 161.877 129.795 161.805 130.099 161.759C130.409 161.713 130.776 161.687 131.207 161.687C131.637 161.687 131.989 161.738 132.262 161.846C132.534 161.954 132.813 162.128 133.096 162.379C133.379 162.625 133.621 162.954 133.81 163.349C134.219 164.19 134.229 165.026 133.831 165.851C133.437 166.677 132.702 167.339 131.632 167.836H131.637Z" fill="black"/>
<path d="M117.815 161.329L120.775 171.894L117.054 172.889C114.483 173.576 112.924 172.945 112.378 170.996C112.195 170.335 112.216 169.719 112.441 169.16C112.672 168.596 113.071 168.16 113.648 167.847L113.638 167.816C113.218 167.791 112.856 167.668 112.557 167.452C112.258 167.237 111.89 166.827 111.465 166.232L109.523 163.544L111.512 163.011L113.165 165.421C113.548 165.97 113.916 166.319 114.267 166.468C114.619 166.616 115.07 166.621 115.616 166.473L117.18 166.052L115.994 161.806L117.815 161.318V161.329ZM116.839 171.371L118.539 170.914L117.589 167.514L115.784 167.996C115.055 168.191 114.561 168.488 114.304 168.893C114.047 169.299 114 169.776 114.168 170.324C114.472 171.412 115.364 171.76 116.844 171.366L116.839 171.371Z" fill="black"/>
<path d="M103.459 175.413L101.601 175.654L100.678 168.9C100.483 167.494 100.704 166.376 101.339 165.54C101.974 164.704 102.971 164.191 104.346 164.012C105.721 163.832 106.828 164.063 107.668 164.709C108.507 165.356 109.022 166.381 109.216 167.782L110.139 174.536L108.266 174.782L107.347 168.089C107.222 167.187 106.922 166.525 106.44 166.11C105.962 165.694 105.338 165.54 104.566 165.643C103.795 165.745 103.233 166.053 102.882 166.576C102.53 167.099 102.415 167.812 102.541 168.715L103.459 175.408V175.413Z" fill="black"/>
<path d="M96.2555 175.838L96.1925 166.483L90.6824 166.519L90.6719 164.919L98.0712 164.873L98.1447 175.828L96.2555 175.838Z" fill="black"/>
<path d="M81.0195 174.943L81.198 173.353L86.7711 173.943L87.0964 170.988L81.8697 170.435L82.0428 168.86L87.2696 169.414L87.6212 166.234L81.8907 165.629L82.0691 164.039L89.6783 164.844L88.4713 175.738L81.0195 174.948V174.943Z" fill="black"/>
<path d="M74.7662 173.907C73.449 173.605 72.5202 173.076 71.9849 172.328C71.4496 171.579 71.3185 170.63 71.5913 169.481L73.4438 169.907C73.2811 170.574 73.3493 171.127 73.6485 171.558C73.9423 171.989 74.4461 172.287 75.1493 172.446C75.7423 172.584 76.2408 172.563 76.6449 172.384C77.049 172.21 77.3009 171.902 77.4111 171.461C77.5213 171.004 77.4268 170.62 77.1172 170.317C76.8129 170.014 76.2146 169.64 75.3172 169.194C74.8554 168.963 74.4829 168.763 74.1995 168.604C73.9161 168.445 73.6117 168.235 73.2916 167.978C72.9715 167.722 72.7353 167.466 72.5779 167.209C72.4257 166.953 72.3208 166.64 72.2631 166.276C72.2053 165.912 72.2316 165.506 72.3365 165.065C72.5727 164.075 73.1394 163.373 74.0263 162.947C74.9132 162.521 75.9732 162.455 77.1959 162.737C78.5341 163.045 79.4997 163.604 80.0927 164.419C80.6804 165.235 80.8326 166.245 80.544 167.455L78.6601 167.024C79.0222 165.517 78.4134 164.578 76.8286 164.219C76.1516 164.065 75.5901 164.086 75.1388 164.291C74.6875 164.491 74.3989 164.845 74.2782 165.342C74.1575 165.84 74.2467 166.235 74.5406 166.527C74.8397 166.814 75.4327 167.183 76.3301 167.635C76.8076 167.881 77.1854 168.081 77.4531 168.235C77.726 168.389 78.0251 168.594 78.3662 168.855C78.702 169.117 78.9434 169.373 79.0851 169.62C79.2268 169.866 79.3318 170.179 79.3947 170.543C79.4577 170.912 79.4367 171.307 79.3318 171.738C79.1114 172.646 78.5866 173.302 77.7522 173.707C76.9178 174.112 75.9207 174.179 74.7662 173.912V173.907Z" fill="black"/>
<path d="M56.3477 167.377L56.9879 165.905L60.3779 167.315L64.1301 158.709L65.8566 159.427L62.1044 168.033L65.4945 169.443L64.8543 170.915L56.3529 167.377H56.3477Z" fill="black"/>
<path d="M46.5 161.823L52.2305 152.406L53.8416 153.345L51.2807 157.55L55.7203 160.13L58.2812 155.925L59.9028 156.868L54.1722 166.285L52.5507 165.341L54.8859 161.505L50.4463 158.925L48.1111 162.761L46.5 161.823Z" fill="black"/>
<path d="M37.6992 155.218L38.7173 153.966L43.1097 157.372L44.9988 155.048L40.8794 151.853L41.8869 150.612L46.0064 153.807L48.0425 151.299L43.5295 147.796L44.5475 146.545L50.5405 151.197L43.5715 159.777L37.7045 155.223L37.6992 155.218Z" fill="black"/>
<path d="M23.5703 140.208L33.7562 135.033L35.383 136.936L32.523 140.695C31.4419 142.116 30.4081 143.414 29.4268 144.588L29.4478 144.614C30.8017 143.88 32.2921 143.116 33.9136 142.326L38.2063 140.244L39.8331 142.147L32.8169 151.025L31.6256 149.63L34.3492 146.239C35.5352 144.747 36.6162 143.444 37.5923 142.326L37.5713 142.301C35.9078 143.167 34.3649 143.942 32.9533 144.629L28.9912 146.542L27.3959 144.675L30.025 141.203C30.9644 139.967 32.0192 138.623 33.1894 137.177L33.1685 137.156C32.0349 137.803 30.5341 138.613 28.6659 139.593L24.7616 141.598L23.5703 140.203V140.208Z" fill="black"/>
<path d="M23.0082 136.692C21.6385 136.425 20.547 135.615 19.7336 134.261C18.9202 132.907 18.7312 131.579 19.1616 130.281C19.5919 128.983 20.5889 127.886 22.1475 126.993C23.7061 126.101 25.1702 125.788 26.5399 126.055C27.9096 126.322 29.0011 127.132 29.8145 128.486C30.6279 129.84 30.8168 131.168 30.3865 132.466C29.9562 133.763 28.9591 134.861 27.4005 135.753C25.8419 136.646 24.3778 136.959 23.0082 136.692ZM20.9563 130.876C20.6099 131.738 20.6834 132.584 21.1872 133.425C21.691 134.266 22.4099 134.748 23.3493 134.871C24.2886 134.994 25.3067 134.738 26.4139 134.107C27.5212 133.476 28.2454 132.727 28.5918 131.871C28.9434 131.009 28.8647 130.163 28.3609 129.322C27.8571 128.481 27.1381 127.999 26.1988 127.876C25.2594 127.753 24.2414 128.009 23.1341 128.64C22.0268 129.271 21.3026 130.019 20.951 130.876H20.9563Z" fill="black"/>
<path d="M26.4233 122.905L16.059 127.074L14.5896 123.587C13.5768 121.176 14.0229 119.586 15.9331 118.817C16.5838 118.556 17.2083 118.504 17.8065 118.653C18.4048 118.807 18.898 119.145 19.2864 119.663L19.3179 119.653C19.2916 119.243 19.3703 118.879 19.554 118.561C19.7377 118.243 20.105 117.838 20.6613 117.35L23.1487 115.135L23.9359 116.996L21.6898 118.899C21.1808 119.335 20.8712 119.735 20.7662 120.094C20.656 120.453 20.7085 120.889 20.9237 121.402L21.5429 122.869L25.7044 121.192L26.4233 122.9V122.905ZM16.1115 123.192L16.7832 124.787L20.1155 123.448L19.4018 121.756C19.1132 121.074 18.7511 120.633 18.3103 120.433C17.8695 120.233 17.3762 120.248 16.8409 120.474C15.7704 120.905 15.529 121.812 16.1167 123.197L16.1115 123.192Z" fill="black"/>
<path d="M11.582 115.195L20.8076 112.708L19.3435 107.517L20.923 107.092L22.8909 114.062L12.0858 116.975L11.582 115.195Z" fill="black"/>
<path d="M20.7296 106.184L9.63056 107.718L9.12678 104.246C8.86439 102.43 9.14252 100.958 9.96117 99.8401C10.7798 98.722 12.0813 98.0399 13.855 97.7937C15.6287 97.5475 17.0719 97.8501 18.1739 98.7066C19.2759 99.5631 19.9581 100.897 20.2258 102.712L20.7296 106.184ZM10.7536 104.051L10.9897 105.682L18.8456 104.6L18.6095 102.969C18.2421 100.42 16.7465 99.3272 14.1279 99.6862C11.5093 100.045 10.3862 101.502 10.7536 104.051Z" fill="black"/>
<path d="M21.3171 74.6755L18.1369 75.1217L17.2711 79.5836L20.0629 81.1376L19.6903 83.0404L9.44141 77.0757L9.9137 74.6396L21.6844 72.7676L21.3118 74.6703L21.3171 74.6755ZM15.7702 78.7374L16.4262 75.3678L15.5026 75.4961C13.5504 75.7628 12.0023 75.9525 10.8531 76.0756V76.1064C12.5376 76.9731 13.9072 77.7014 14.9568 78.2912L15.7649 78.7374H15.7702Z" fill="black"/>
<path d="M14.4017 59.8145L24.9969 63.3994L24.1101 65.9022L18.8833 66.6408C17.0361 66.8972 15.2624 67.1126 13.5516 67.2972L13.5411 67.328C15.1679 67.8152 16.7842 68.3281 18.39 68.8718L22.5567 70.2822L21.9585 71.9695L11.3633 68.3845L12.2554 65.8663L17.4769 65.1432C19.3241 64.8868 21.0979 64.6713 22.8086 64.4867L22.8191 64.4559C21.0191 63.902 19.4028 63.384 17.9755 62.8968L13.8087 61.4864L14.4017 59.8145Z" fill="black"/>
<path d="M29.3069 55.028L26.132 54.5613L23.9909 58.5924L26.2107 60.8593L25.2976 62.5774L17.2266 53.9971L18.3916 51.7969L30.22 53.3047L29.3069 55.028ZM22.7997 57.3615L24.416 54.3151L23.4976 54.1766C21.5507 53.8843 20.0079 53.633 18.8744 53.4278L18.8586 53.4534C20.223 54.7561 21.3198 55.8383 22.1542 56.6999L22.7997 57.3564V57.3615Z" fill="black"/>
<path d="M22.6643 44.8613L30.5464 50.1696L33.6741 45.7332L35.0227 46.641L30.8245 52.5954L21.5938 46.3794L22.6643 44.8613Z" fill="black"/>
<path d="M31.7479 33.5527L34.3298 40.7124L37.7618 43.5589L36.5391 44.9693L33.107 42.1228L25.4453 40.8201L26.8307 39.2251L29.3182 39.7123C30.3782 39.9175 31.4382 40.1585 32.493 40.4303L32.514 40.4047C32.0417 39.3636 31.6324 38.3789 31.2808 37.4454L30.373 35.1375L31.7479 33.5527Z" fill="black"/>
<path d="M39.8353 26.2402L40.9373 27.425L38.2085 29.8457L44.6474 36.7695L43.262 38.0004L36.823 31.0766L34.0942 33.4974L32.9922 32.3126L39.83 26.2402H39.8353Z" fill="black"/>
<path d="M43.0217 23.9629L49.8018 32.6868L48.2957 33.8049L41.5156 25.081L43.0217 23.9629Z" fill="black"/>
<path d="M49.2812 19.5591C50.4252 18.8719 51.543 18.6308 52.6398 18.8411C53.7313 19.0514 54.6182 19.6463 55.2951 20.6208L53.6736 21.5952C53.2118 21.0208 52.6712 20.6721 52.052 20.5592C51.4328 20.4464 50.803 20.5798 50.1681 20.9593C49.3547 21.4465 48.9086 22.1389 48.8299 23.0364C48.7512 23.9339 49.0503 24.9186 49.7273 25.9905C50.4042 27.0676 51.1651 27.7702 52.0153 28.1138C52.8654 28.4523 53.6841 28.3857 54.4817 27.9036C55.1167 27.524 55.526 27.0317 55.7044 26.4265C55.8881 25.8264 55.8199 25.1751 55.5103 24.4827L57.1581 23.4929C57.7353 24.6263 57.8665 25.7085 57.5516 26.7342C57.2368 27.76 56.5073 28.6164 55.3633 29.3037C54.0514 30.0935 52.7447 30.2833 51.4433 29.873C50.1418 29.4627 49.0188 28.5036 48.069 26.9906C47.1191 25.4777 46.7518 24.0622 46.9722 22.7389C47.1926 21.4157 47.964 20.3541 49.2864 19.5591H49.2812Z" fill="black"/>
<path d="M59.0087 14.5418C60.2472 14.0033 61.3072 13.8751 62.1993 14.1572C63.0914 14.4392 63.7841 15.1162 64.2722 16.1933L62.5299 16.9523C62.2466 16.3266 61.8477 15.9266 61.3492 15.7573C60.8454 15.5881 60.2629 15.6496 59.6017 15.9368C59.0454 16.1779 58.6623 16.4907 58.4472 16.8703C58.232 17.2498 58.2215 17.6447 58.4104 18.055C58.6046 18.4858 58.9195 18.732 59.3498 18.7935C59.7801 18.8551 60.4886 18.7935 61.4804 18.6243C61.9894 18.5371 62.4092 18.4704 62.7346 18.4294C63.06 18.3884 63.4325 18.3781 63.8471 18.3935C64.2617 18.4089 64.608 18.4755 64.8914 18.5884C65.1748 18.7012 65.4477 18.8858 65.7206 19.1423C65.9934 19.3987 66.2244 19.7372 66.4133 20.1475C66.8383 21.0758 66.8226 21.9682 66.3765 22.835C65.9305 23.6966 65.1328 24.3787 63.9836 24.8813C62.7293 25.425 61.6116 25.548 60.6355 25.2506C59.6594 24.948 58.9142 24.2351 58.4 23.0965L60.1684 22.3272C60.8139 23.7427 61.8792 24.1274 63.3643 23.4812C63.9993 23.2042 64.4296 22.8555 64.6658 22.4247C64.9019 21.999 64.9124 21.5476 64.6973 21.0809C64.4821 20.6142 64.1672 20.3527 63.7527 20.2962C63.3381 20.2398 62.6349 20.2962 61.6431 20.4706C61.1078 20.5578 60.688 20.6193 60.3784 20.6604C60.0687 20.7014 59.7014 20.7168 59.2711 20.7065C58.8408 20.6963 58.4944 20.6347 58.2215 20.5219C57.9539 20.4091 57.6758 20.2244 57.4029 19.968C57.1247 19.7116 56.8938 19.3833 56.7102 18.9782C56.3218 18.1268 56.3376 17.2908 56.7522 16.4753C57.1667 15.6599 57.9172 15.0188 58.9982 14.5469L59.0087 14.5418Z" fill="black"/>
<path d="M72.6712 21.3813L69.9844 10.7443L73.726 9.84167C76.3132 9.21597 77.856 9.88783 78.3493 11.847C78.5172 12.5137 78.4805 13.124 78.2391 13.6831C77.9977 14.237 77.5831 14.6678 76.9954 14.9653V14.996C77.4204 15.0319 77.7773 15.1653 78.0764 15.3858C78.3703 15.6115 78.7271 16.0269 79.1365 16.6372L81.0099 19.3708L79.0053 19.8529L77.4152 17.4014C77.0478 16.8475 76.691 16.4885 76.3447 16.3295C75.9983 16.1705 75.547 16.1551 74.996 16.2885L73.4217 16.668L74.4974 20.9402L72.666 21.3813H72.6712ZM73.9044 11.37L72.1937 11.7803L73.0543 15.2012L74.8753 14.7601C75.61 14.5857 76.1085 14.2985 76.3761 13.8985C76.6438 13.4984 76.7015 13.0266 76.5493 12.4676C76.2712 11.3752 75.3896 11.0059 73.9044 11.3649V11.37Z" fill="black"/>
<path d="M87.3797 7.65388L89.2427 7.45898L89.9931 14.234C90.1505 15.6393 89.9039 16.7573 89.2479 17.5779C88.5972 18.3985 87.5791 18.8858 86.2042 19.0294C84.8293 19.173 83.7273 18.9165 82.9034 18.2498C82.0795 17.5831 81.5915 16.5471 81.434 15.1418L80.6836 8.36677L82.5623 8.16675L83.3075 14.8802C83.4072 15.788 83.6958 16.4548 84.1629 16.8804C84.6352 17.3061 85.2544 17.4754 86.0258 17.3933C86.7972 17.3112 87.364 17.0138 87.7313 16.5009C88.0987 15.988 88.2299 15.2803 88.1302 14.3674L87.385 7.65388H87.3797Z" fill="black"/>
<path d="M94.5559 7.4065L94.4037 16.7613L99.9139 16.8485L99.8876 18.4486L92.4883 18.3358L92.6667 7.38086L94.5559 7.41163V7.4065Z" fill="black"/>
<path d="M109.8 8.67563L109.585 10.2604L104.028 9.53212L103.623 12.476L108.834 13.1581L108.619 14.7275L103.408 14.0454L102.973 17.2201L108.682 17.9689L108.462 19.5536L100.879 18.5587L102.369 7.70117L109.795 8.67563H109.8Z" fill="black"/>
<path d="M116.023 9.86305C117.335 10.1964 118.248 10.7452 118.762 11.5094C119.282 12.2735 119.387 13.2224 119.077 14.3661L117.235 13.8942C117.414 13.2326 117.361 12.6787 117.078 12.2376C116.795 11.8017 116.301 11.4889 115.603 11.3093C115.016 11.1606 114.517 11.1657 114.108 11.3299C113.698 11.494 113.436 11.7966 113.321 12.2325C113.2 12.689 113.284 13.0736 113.583 13.3813C113.882 13.6891 114.47 14.0789 115.351 14.5507C115.808 14.7917 116.175 15.002 116.453 15.1661C116.732 15.3354 117.031 15.5508 117.346 15.8175C117.66 16.0842 117.891 16.3457 118.038 16.6073C118.185 16.8689 118.285 17.1817 118.332 17.551C118.379 17.9203 118.348 18.3203 118.227 18.7562C117.965 19.741 117.382 20.4282 116.485 20.8282C115.588 21.2283 114.528 21.2744 113.31 20.9616C111.977 20.6231 111.027 20.0384 110.46 19.2076C109.888 18.3767 109.768 17.3612 110.088 16.1611L111.961 16.6381C111.557 18.1357 112.145 19.0896 113.719 19.4896C114.391 19.6589 114.953 19.6538 115.409 19.4589C115.866 19.2691 116.165 18.9255 116.296 18.428C116.427 17.9305 116.348 17.5356 116.06 17.2381C115.771 16.9407 115.183 16.556 114.302 16.0893C113.83 15.8329 113.457 15.6226 113.195 15.4636C112.927 15.3046 112.628 15.0892 112.302 14.8225C111.972 14.5558 111.741 14.2943 111.599 14.0378C111.463 13.7865 111.363 13.4737 111.311 13.1044C111.258 12.7351 111.29 12.3402 111.4 11.9094C111.641 11.0068 112.187 10.3657 113.032 9.98101C113.877 9.59635 114.874 9.55532 116.023 9.84766V9.86305Z" fill="black"/>
<path d="M134.268 16.8467L133.586 18.3033L130.233 16.8108L126.26 25.3194L124.555 24.5603L128.527 16.0467L125.174 14.5542L125.851 13.0977L134.258 16.8467H134.268Z" fill="black"/>
<path d="M143.966 22.631L137.994 31.9037L136.409 30.9292L139.075 26.7904L134.704 24.1029L132.038 28.2418L130.438 27.2571L136.409 17.9844L138.01 18.9691L135.58 22.7438L139.952 25.4313L142.381 21.6565L143.966 22.631Z" fill="black"/>
<path d="M152.604 29.4628L151.554 30.6886L147.251 27.1754L145.304 29.4525L149.34 32.7452L148.301 33.9607L144.265 30.668L142.166 33.1247L146.59 36.7353L145.54 37.9611L139.668 33.1657L146.852 24.7598L152.604 29.4525V29.4628Z" fill="black"/>
<path d="M166.343 44.8085L156.026 49.732L154.452 47.7934L157.406 44.1058C158.524 42.7108 159.589 41.4389 160.597 40.2901L160.576 40.2644C159.201 40.9671 157.695 41.6902 156.052 42.439L151.707 44.4136L150.133 42.4749L157.375 33.7715L158.529 35.1921L155.722 38.5104C154.499 39.9721 153.381 41.2491 152.384 42.3416L152.405 42.3672C154.095 41.5415 155.648 40.803 157.081 40.1516L161.09 38.336L162.638 40.2388L159.92 43.6443C158.949 44.8546 157.863 46.1727 156.656 47.5934L156.677 47.619C157.826 47.0036 159.348 46.2291 161.242 45.2957L165.199 43.3827L166.354 44.8034L166.343 44.8085Z" fill="black"/>
<path d="M166.816 48.3354C168.18 48.638 169.251 49.474 170.027 50.8485C170.804 52.2229 170.962 53.5513 170.495 54.8437C170.027 56.131 169.009 57.2029 167.425 58.0543C165.845 58.9057 164.37 59.1826 163.011 58.88C161.647 58.5774 160.576 57.7414 159.8 56.3669C159.023 54.9925 158.866 53.6641 159.333 52.3717C159.794 51.0844 160.818 50.0125 162.397 49.1611C163.977 48.3097 165.451 48.0328 166.811 48.3354H166.816ZM168.716 54.1975C169.088 53.3461 169.03 52.4948 168.548 51.6434C168.065 50.792 167.356 50.2894 166.422 50.1458C165.488 49.9971 164.46 50.2279 163.342 50.8331C162.219 51.4383 161.474 52.1665 161.106 53.0179C160.734 53.8693 160.791 54.7206 161.274 55.572C161.757 56.4234 162.465 56.926 163.4 57.0696C164.334 57.2183 165.362 56.9875 166.48 56.3823C167.603 55.7771 168.348 55.0489 168.716 54.1975Z" fill="black"/>
<path d="M163.04 62.0284L173.51 58.1152L174.89 61.6335C175.84 64.0697 175.352 65.6442 173.42 66.3673C172.764 66.6135 172.14 66.6494 171.542 66.4853C170.949 66.316 170.461 65.9673 170.088 65.439L170.057 65.4493C170.072 65.8596 169.983 66.2237 169.789 66.5366C169.595 66.8494 169.217 67.2443 168.65 67.7213L166.105 69.8754L165.37 67.9931L167.664 66.1468C168.183 65.7211 168.503 65.3313 168.619 64.9723C168.739 64.6133 168.697 64.1774 168.493 63.6594L167.916 62.1772L163.712 63.7517L163.035 62.0284H163.04ZM173.357 61.9925L172.728 60.3821L169.359 61.6387L170.025 63.3465C170.293 64.0389 170.65 64.4851 171.085 64.6954C171.521 64.9057 172.014 64.9057 172.555 64.6902C173.63 64.2851 173.898 63.3876 173.352 61.9874L173.357 61.9925Z" fill="black"/>
<path d="M177.681 70.1017L168.393 72.3583L169.726 77.5845L168.136 77.9691L166.352 70.9531L177.23 68.3066L177.687 70.0966L177.681 70.1017Z" fill="black"/>
<path d="M168.301 78.8906L179.437 77.6289L179.851 81.1113C180.066 82.9371 179.751 84.3937 178.906 85.4912C178.062 86.5888 176.744 87.2401 174.96 87.4401C173.176 87.6402 171.743 87.3017 170.662 86.4247C169.581 85.5476 168.931 84.1937 168.715 82.3678L168.301 78.8854V78.8906ZM178.219 81.2703L178.025 79.6342L170.143 80.5266L170.337 82.1627C170.641 84.7219 172.105 85.8502 174.735 85.5528C177.364 85.2553 178.523 83.8295 178.219 81.2703Z" fill="black"/>
</svg>
