<svg width="450" height="194" viewBox="0 0 450 194" fill="none" xmlns="http://www.w3.org/2000/svg">
<g clip-path="url(#clip0_811_4451)">
<path d="M446.826 12.6162L444.668 12.2164L445.56 7.34889L432.929 5.03268L433.386 2.55187L446.005 4.86807L446.897 0.000514178L449.055 0.400279L446.826 12.6162Z" fill="black"/>
<path d="M443.353 26.7603L428.776 23.0919L429.385 20.6464L435.894 22.2924L437.583 15.5555L431.074 13.9212L431.696 11.4521L446.273 15.1204L445.652 17.5777L439.718 16.0845L438.029 22.8215L443.963 24.3147L443.353 26.7603Z" fill="black"/>
<path d="M438.943 40.7754L436.855 40.0935L439.177 32.9332L435.307 31.6752L433.126 38.4004L431.062 37.7302L433.243 31.005L429.068 29.6411L426.676 37.013L424.588 36.3311L427.755 26.5489L442.051 31.2049L438.943 40.7754Z" fill="black"/>
<path d="M421.903 43.5029L435.719 49.4286L433.831 53.8612C432.845 56.1774 431.473 57.7176 429.738 58.4583C428.002 59.199 426.032 59.105 423.815 58.1526C421.599 57.2003 420.168 55.8482 419.511 54.0728C418.854 52.2974 419.018 50.2516 420.004 47.9354L421.903 43.5029ZM431.825 52.9676L432.716 50.8865L422.935 46.6892L422.044 48.7702C420.649 52.027 421.587 54.355 424.847 55.7541C428.107 57.1415 430.43 56.2244 431.825 52.9676Z" fill="black"/>
<path d="M415.771 57.4947L429.152 64.3611L426.795 68.9817C425.165 72.168 423.124 73.1321 420.65 71.874C419.805 71.439 419.207 70.8511 418.844 70.1104C418.48 69.358 418.398 68.5584 418.609 67.7002L418.574 67.6766C418.163 68.0646 417.718 68.3115 417.225 68.4174C416.733 68.5232 415.994 68.4997 414.997 68.3703L410.517 67.806L411.772 65.3369L415.712 65.9365C416.615 66.0659 417.296 66.0189 417.765 65.819C418.234 65.6073 418.644 65.1606 418.984 64.4904L419.969 62.5504L414.598 59.7992L415.771 57.4947ZM425.059 67.7825L426.138 65.6779L421.834 63.4675L420.685 65.7132C420.228 66.6185 420.087 67.3827 420.263 68.0176C420.439 68.6525 420.884 69.1346 421.588 69.4873C422.96 70.181 424.121 69.6166 425.059 67.7825Z" fill="black"/>
<path d="M421.155 79.3394L408.114 71.8499L409.369 69.6513L422.41 77.1407L421.155 79.3394Z" fill="black"/>
<path d="M413.182 92.3091L403.108 80.0932L404.82 77.3772L420.16 81.2454L418.776 83.444L412.385 81.8215C410.543 81.3747 408.432 80.7751 406.063 80.0461L406.04 80.0814C407.4 81.5393 408.843 83.1853 410.367 85.0195L414.578 90.1105L413.182 92.3091Z" fill="black"/>
<path d="M405.945 102.419L404.162 101.137L408.548 95.0235L405.241 92.6368L401.125 98.3744L399.365 97.1046L403.482 91.367L399.917 88.7921L395.401 95.0823L393.619 93.8008L399.612 85.453L411.82 94.2476L405.945 102.419Z" fill="black"/>
<path d="M391.905 95.9986L403.539 105.546L400.267 109.555C398.004 112.33 395.799 112.835 393.653 111.072C392.925 110.472 392.456 109.767 392.269 108.967C392.069 108.156 392.163 107.356 392.55 106.557L392.515 106.533C392.034 106.827 391.542 106.98 391.037 106.968C390.533 106.957 389.818 106.78 388.868 106.451L384.61 104.946L386.358 102.806L390.087 104.229C390.943 104.546 391.612 104.652 392.116 104.546C392.621 104.44 393.113 104.088 393.594 103.5L394.966 101.819L390.298 97.9856L391.905 95.9986ZM398.824 108.015L400.326 106.181L396.584 103.112L394.99 105.064C394.344 105.851 394.051 106.569 394.086 107.227C394.122 107.874 394.462 108.45 395.072 108.944C396.268 109.919 397.523 109.614 398.824 108.015Z" fill="black"/>
<path d="M388.774 120.043C388.903 121.912 388.211 123.629 386.698 125.157C385.185 126.686 383.496 127.415 381.62 127.321C379.743 127.226 377.949 126.333 376.225 124.628C374.501 122.923 373.575 121.136 373.446 119.267C373.317 117.397 374.009 115.681 375.521 114.152C377.034 112.612 378.723 111.895 380.6 111.989C382.476 112.083 384.27 112.977 385.994 114.681C387.718 116.386 388.657 118.173 388.774 120.043ZM381.796 124.793C383.051 124.934 384.153 124.534 385.091 123.57C386.03 122.618 386.417 121.501 386.252 120.243C386.088 118.985 385.396 117.75 384.165 116.539C382.933 115.328 381.702 114.658 380.435 114.517C379.169 114.376 378.078 114.775 377.14 115.74C376.202 116.692 375.815 117.809 375.979 119.067C376.143 120.325 376.835 121.559 378.066 122.77C379.298 123.981 380.541 124.652 381.796 124.793Z" fill="black"/>
<path d="M371.698 138.819L370.232 137.173L375.603 132.364L372.518 128.907L367.534 133.375L366.08 131.753L371.064 127.285L367.042 122.77L368.93 121.077L378.945 132.317L371.698 138.819Z" fill="black"/>
<path d="M356.617 150.658L355.292 148.906L359.233 145.919L351.481 135.667L353.486 134.15L361.238 144.403L365.179 141.416L366.504 143.168L356.617 150.658Z" fill="black"/>
<path d="M344.512 158.759L336.232 146.179L338.331 144.791L342.026 150.412L347.807 146.59L344.113 140.97L346.224 139.571L354.504 152.152L352.393 153.551L349.015 148.425L343.234 152.246L346.611 157.372L344.512 158.759Z" fill="black"/>
<path d="M331.833 166.097L330.754 164.18L337.287 160.465L335.281 156.914L329.147 160.406L328.068 158.513L334.202 155.021L332.032 151.188L325.312 155.009L324.234 153.093L333.158 148.014L340.57 161.123L331.833 166.097Z" fill="black"/>
<path d="M318.583 172.962C316.941 173.714 315.416 173.855 313.997 173.385C312.578 172.915 311.499 171.962 310.76 170.516L313.083 169.458C313.599 170.328 314.267 170.881 315.065 171.139C315.862 171.398 316.73 171.316 317.633 170.904C318.794 170.375 319.509 169.505 319.767 168.294C320.025 167.083 319.791 165.696 319.075 164.108C318.36 162.533 317.457 161.439 316.39 160.84C315.323 160.24 314.208 160.193 313.071 160.71C312.156 161.122 311.534 161.733 311.194 162.521C310.854 163.309 310.831 164.202 311.124 165.202L308.767 166.283C308.192 164.637 308.192 163.144 308.79 161.792C309.388 160.44 310.502 159.394 312.133 158.641C314.021 157.783 315.792 157.736 317.445 158.512C319.111 159.288 320.436 160.781 321.456 163.003C322.465 165.225 322.711 167.224 322.195 168.988C321.679 170.775 320.471 172.092 318.583 172.962Z" fill="black"/>
<path d="M307.912 175.292C307.232 177.044 305.883 178.29 303.866 179.054C301.849 179.818 300.007 179.748 298.354 178.866C296.7 177.984 295.445 176.409 294.601 174.139C293.757 171.87 293.674 169.848 294.355 168.096C295.035 166.344 296.384 165.098 298.401 164.334C300.418 163.581 302.259 163.64 303.913 164.522C305.566 165.404 306.821 166.979 307.666 169.248C308.51 171.529 308.592 173.552 307.912 175.292ZM299.585 176.632C300.664 177.302 301.837 177.396 303.08 176.926C304.335 176.456 305.156 175.621 305.531 174.41C305.918 173.199 305.813 171.788 305.203 170.177C304.593 168.566 303.76 167.426 302.681 166.756C301.602 166.086 300.43 165.992 299.186 166.462C297.943 166.932 297.111 167.767 296.735 168.978C296.348 170.189 296.466 171.6 297.064 173.211C297.662 174.821 298.506 175.974 299.585 176.632Z" fill="black"/>
<path d="M277.726 186.872L273.692 172.363L276.049 171.705L278.078 178.994C278.641 181.028 279.133 182.874 279.532 184.52L279.579 184.508C279.614 182.78 279.685 180.805 279.802 178.559L280.259 170.517L283.05 169.741L287.589 176.384C288.856 178.242 289.946 179.899 290.861 181.357L290.896 181.346C290.392 179.735 289.853 177.901 289.278 175.867L287.249 168.565L289.606 167.907L293.641 182.416L289.712 183.509L285.455 177.254C284.294 175.573 283.238 173.903 282.265 172.257L282.218 172.269C282.218 174.303 282.159 176.29 282.054 178.206L281.643 185.766L277.726 186.872Z" fill="black"/>
<path d="M270.228 173.033L273.125 187.823L267.801 188.87C266.1 189.199 264.716 189.046 263.637 188.388C262.558 187.741 261.89 186.707 261.608 185.296C261.327 183.873 261.561 182.65 262.312 181.639C263.063 180.628 264.282 179.958 265.983 179.629L268.821 179.076L267.742 173.527L270.228 173.033ZM267.672 186.718L270.216 186.213L269.231 181.169L266.686 181.674C264.669 182.074 263.825 183.109 264.153 184.802C264.482 186.471 265.654 187.106 267.672 186.718Z" fill="black"/>
<path d="M248.897 176.594L250.821 180.451L256.99 179.604L257.822 175.372L260.461 175.007L257.072 190.68L253.706 191.138L246.259 176.947L248.897 176.594ZM256.532 181.897L251.864 182.532L252.416 183.649C253.588 186.024 254.503 187.917 255.148 189.316H255.195C255.606 186.788 255.969 184.719 256.298 183.12L256.532 181.897Z" fill="black"/>
<path d="M233.487 192.916L232.501 177.878L236.125 177.643L239.784 183.721C241.063 185.873 242.271 187.954 243.385 189.976H243.432C243.197 187.695 243.009 185.426 242.857 183.145L242.47 177.231L244.909 177.067L245.895 192.104L242.247 192.351L238.612 186.273C237.333 184.121 236.125 182.04 234.999 180.018H234.953C235.187 182.546 235.375 184.826 235.504 186.849L235.891 192.763L233.487 192.916Z" fill="black"/>
<path d="M218.498 193.104L223.611 184.003L223.517 177.948L226.05 177.901L226.144 183.956L231.562 192.88L228.689 192.927L226.989 189.964C226.262 188.706 225.57 187.413 224.925 186.108H224.878C224.221 187.531 223.576 188.836 222.919 190.035L221.348 193.045L218.498 193.104Z" fill="black"/>
<path d="M213.971 192.764L214.475 187.109L216.223 187.179L216.27 192.858L213.971 192.764Z" fill="black"/>
<path d="M205.819 192.565C204.013 192.412 202.676 191.883 201.808 190.966C200.94 190.048 200.577 188.79 200.718 187.168L203.263 187.38C203.18 188.32 203.38 189.061 203.861 189.59C204.341 190.119 205.069 190.425 206.03 190.507C206.839 190.578 207.496 190.448 208.001 190.131C208.505 189.813 208.775 189.343 208.821 188.72C208.88 188.073 208.669 187.579 208.2 187.227C207.731 186.874 206.863 186.486 205.585 186.051C204.928 185.828 204.388 185.639 203.978 185.475C203.567 185.31 203.122 185.087 202.653 184.805C202.172 184.522 201.808 184.217 201.55 183.899C201.292 183.582 201.093 183.182 200.94 182.688C200.788 182.206 200.741 181.654 200.788 181.031C200.905 179.643 201.503 178.561 202.594 177.821C203.685 177.068 205.08 176.763 206.757 176.904C208.599 177.057 209.983 177.633 210.933 178.62C211.882 179.608 212.281 180.96 212.14 182.665L209.549 182.453C209.725 180.325 208.728 179.173 206.546 178.996C205.62 178.926 204.881 179.067 204.318 179.432C203.755 179.796 203.45 180.325 203.392 181.031C203.333 181.736 203.532 182.253 203.978 182.582C204.424 182.912 205.291 183.3 206.57 183.735C207.25 183.97 207.789 184.17 208.188 184.323C208.575 184.475 209.021 184.699 209.525 184.981C210.029 185.263 210.393 185.569 210.639 185.886C210.886 186.192 211.085 186.592 211.237 187.086C211.39 187.568 211.449 188.12 211.402 188.72C211.296 190.001 210.733 191.001 209.701 191.706C208.716 192.4 207.402 192.694 205.819 192.565Z" fill="black"/>
<path d="M186.87 190.213C185.075 189.907 183.797 189.272 183.011 188.284C182.226 187.297 181.968 186.004 182.237 184.405L184.759 184.828C184.606 185.757 184.747 186.509 185.169 187.073C185.591 187.638 186.295 188.002 187.257 188.167C188.066 188.308 188.723 188.237 189.251 187.955C189.778 187.685 190.083 187.238 190.189 186.627C190.294 185.992 190.13 185.474 189.696 185.086C189.262 184.698 188.43 184.24 187.186 183.699C186.553 183.417 186.025 183.182 185.638 182.982C185.24 182.782 184.817 182.523 184.372 182.194C183.914 181.865 183.574 181.536 183.351 181.195C183.117 180.854 182.953 180.442 182.847 179.937C182.742 179.431 182.73 178.879 182.835 178.267C183.07 176.892 183.762 175.869 184.911 175.21C186.061 174.552 187.468 174.364 189.133 174.646C190.951 174.952 192.288 175.645 193.156 176.703C194.024 177.773 194.305 179.149 194.024 180.83L191.467 180.395C191.819 178.291 190.916 177.068 188.77 176.703C187.855 176.551 187.104 176.633 186.518 176.95C185.932 177.268 185.58 177.773 185.462 178.467C185.345 179.161 185.498 179.702 185.92 180.066C186.342 180.442 187.175 180.889 188.406 181.43C189.075 181.724 189.591 181.971 189.966 182.159C190.341 182.347 190.763 182.606 191.244 182.935C191.713 183.264 192.065 183.593 192.276 183.923C192.487 184.252 192.663 184.663 192.769 185.169C192.886 185.663 192.898 186.215 192.792 186.815C192.581 188.085 191.936 189.025 190.846 189.648C189.767 190.295 188.441 190.471 186.87 190.213Z" fill="black"/>
<path d="M167.764 185.92L168.256 183.768L173.065 184.873L175.915 172.328L178.366 172.892L175.516 185.438L180.336 186.543L179.843 188.694L167.764 185.92Z" fill="black"/>
<path d="M169.57 170.788L165.337 185.25L160.376 183.792C156.951 182.78 155.626 180.946 156.4 178.277C156.67 177.372 157.127 176.667 157.796 176.173C158.464 175.679 159.238 175.444 160.118 175.491L160.129 175.456C159.672 175.126 159.344 174.727 159.156 174.268C158.968 173.81 158.851 173.069 158.792 172.069L158.511 167.555L161.161 168.331L161.314 172.328C161.361 173.233 161.525 173.904 161.818 174.327C162.111 174.75 162.627 175.068 163.355 175.291L165.442 175.902L167.143 170.094L169.57 170.788ZM161.22 181.852L163.495 182.522L164.856 177.866L162.452 177.16C161.478 176.878 160.704 176.878 160.118 177.172C159.531 177.466 159.144 177.995 158.933 178.748C158.488 180.241 159.25 181.276 161.22 181.852Z" fill="black"/>
<path d="M147.218 163.415L147.124 167.73L152.976 169.881L155.686 166.53L158.184 167.448L147.875 179.699L144.685 178.523L144.732 162.486L147.218 163.415ZM151.499 171.68L147.077 170.058L147.042 171.304C146.972 173.949 146.89 176.054 146.808 177.594L146.843 177.606C148.391 175.56 149.669 173.902 150.701 172.644L151.499 171.68Z" fill="black"/>
<path d="M128.912 171.989L129.78 169.966L134.319 171.93L139.408 160.114L141.719 161.113L136.629 172.929L141.168 174.893L140.3 176.915L128.912 171.989Z" fill="black"/>
<path d="M117.675 166.343L118.661 164.379L125.369 167.765L127.198 164.12L120.901 160.934L121.874 158.982L128.172 162.169L130.154 158.242L123.258 154.75L124.243 152.786L133.402 157.419L126.635 170.869L117.675 166.343Z" fill="black"/>
<path d="M109.232 161.887C107.708 160.982 106.699 159.877 106.218 158.56C105.737 157.243 105.82 155.903 106.453 154.516L108.787 155.891C108.482 156.714 108.47 157.467 108.74 158.16C109.01 158.854 109.561 159.442 110.382 159.924C111.531 160.606 112.704 160.712 113.888 160.241C115.073 159.771 116.105 158.783 116.996 157.267C117.887 155.75 118.263 154.351 118.122 153.093C117.981 151.835 117.348 150.871 116.222 150.201C115.202 149.601 114.228 149.436 113.29 149.695C112.352 149.954 111.519 150.706 110.78 151.917L114.088 153.869L113.02 155.691L107.673 152.529L111.801 145.509L113.677 146.615L112.739 148.214L112.774 148.237C113.466 147.873 114.24 147.732 115.12 147.802C115.999 147.873 116.879 148.178 117.758 148.696C119.424 149.671 120.385 151.047 120.667 152.822C120.948 154.586 120.479 156.503 119.26 158.572C118.016 160.688 116.504 162.04 114.709 162.616C112.915 163.24 111.097 162.993 109.232 161.887Z" fill="black"/>
<path d="M98.5584 154.81L106.838 142.229L108.949 143.629L100.669 156.209L98.5584 154.81Z" fill="black"/>
<path d="M90.1284 149.272C88.6741 148.202 87.8063 146.932 87.5131 145.463C87.2199 143.993 87.5365 142.582 88.4278 141.23L90.4919 142.747C89.9876 143.617 89.8234 144.475 89.9994 145.31C90.1635 146.145 90.6561 146.85 91.4653 147.45C92.4974 148.214 93.5998 148.402 94.7843 148.038C95.9571 147.673 97.0595 146.779 98.0798 145.38C99.1001 143.981 99.6162 142.664 99.6162 141.43C99.6162 140.195 99.1118 139.208 98.1033 138.467C97.294 137.879 96.4614 137.62 95.6052 137.715C94.7491 137.797 93.9634 138.22 93.2362 138.973L91.137 137.432C92.2863 136.127 93.5881 135.398 95.054 135.257C96.52 135.116 97.9743 135.575 99.4285 136.645C101.094 137.867 101.997 139.396 102.138 141.23C102.278 143.064 101.622 144.957 100.179 146.932C98.7365 148.908 97.1299 150.095 95.3355 150.507C93.5412 150.906 91.8055 150.495 90.1284 149.272Z" fill="black"/>
<path d="M88.3906 128.462L78.4338 139.749L74.8333 136.551C72.9451 134.881 71.9248 133.094 71.7606 131.213C71.5965 129.332 72.3236 127.486 73.9186 125.675C75.5135 123.865 77.2492 122.936 79.1374 122.854C81.0256 122.783 82.902 123.583 84.7902 125.264L88.3906 128.462ZM76.311 134.928L77.9998 136.433L85.0482 128.438L83.3594 126.933C80.7206 124.582 78.2227 124.747 75.8654 127.404C73.5198 130.073 73.6606 132.577 76.311 134.928Z" fill="black"/>
<path d="M59.3144 121.641L60.8743 120.089L66.1635 125.451L69.0602 122.582L64.0994 117.562L65.6474 116.033L70.6083 121.054L73.7279 117.961L68.2979 112.459L69.8577 110.907L77.0703 118.22L66.3863 128.813L59.3144 121.641Z" fill="black"/>
<path d="M49.4559 110.52L63.9984 104.288L66.1094 106.71L58.0758 120.373L56.3636 118.421L59.7295 112.73C60.6794 111.084 61.8522 109.227 63.2126 107.157L63.1892 107.122C61.4065 108.016 59.4245 108.933 57.2314 109.885L51.1682 112.483L49.4559 110.52Z" fill="black"/>
<path d="M41.8299 100.703L43.5656 99.3508L48.1746 105.3L51.388 102.796L47.0605 97.2109L48.7727 95.8706L53.1003 101.455L56.5717 98.7512L51.8337 92.6373L53.5694 91.2852L59.8672 99.4096L47.9987 108.651L41.8299 100.703Z" fill="black"/>
<path d="M38.1144 95.4345L48.6928 88.1449L44.506 82.0429L46.3121 80.7966L51.9297 88.9915L39.5452 97.5273L38.1144 95.4345Z" fill="black"/>
<path d="M33.8442 85.8528C32.0029 85.5001 30.5252 84.4067 29.4228 82.5607C28.3087 80.7148 28.0389 78.8924 28.6018 77.0936C29.1648 75.2947 30.4783 73.778 32.5541 72.5317C34.6299 71.2854 36.5885 70.8269 38.4297 71.1796C40.271 71.5323 41.7487 72.6257 42.8511 74.4717C43.9653 76.3176 44.235 78.14 43.672 79.9388C43.1091 81.7377 41.7956 83.2544 39.7198 84.5007C37.644 85.747 35.6854 86.1938 33.8442 85.8528ZM31.0061 77.8813C30.5487 79.0688 30.6659 80.2328 31.3579 81.385C32.0498 82.5372 33.0232 83.1839 34.2781 83.3367C35.533 83.4896 36.9051 83.1251 38.3711 82.2433C39.8488 81.3615 40.8105 80.3151 41.2561 79.1276C41.7135 77.9401 41.5962 76.7761 40.9043 75.6239C40.2124 74.4717 39.2389 73.825 37.9841 73.6722C36.7292 73.5193 35.3571 73.8838 33.8911 74.7656C32.4251 75.6474 31.4517 76.6938 31.0061 77.8813Z" fill="black"/>
<path d="M37.8086 66.371L24.4272 73.2373L21.9527 68.3933C21.1669 66.853 20.9323 65.4657 21.2607 64.2547C21.5891 63.0436 22.3866 62.103 23.6649 61.4446C24.955 60.7862 26.1864 60.6686 27.3591 61.1154C28.5319 61.5622 29.5171 62.5498 30.3028 64.1018L31.6163 66.6767L36.6358 64.1018L37.8086 66.371ZM23.9933 67.6996L25.1778 70.0158L29.7399 67.6761L28.5554 65.3598C27.6172 63.5257 26.3857 63.0084 24.8611 63.7844C23.3482 64.5603 23.0551 65.8654 23.9933 67.6996Z" fill="black"/>
<path d="M11.6329 45.2427L25.5068 39.4463L26.445 41.7155L19.467 44.6313C17.5202 45.4426 15.7493 46.148 14.1778 46.7476L14.1895 46.7829C15.9018 46.6066 17.872 46.4302 20.112 46.2773L28.1221 45.7483L29.2363 48.4289L23.2199 53.7668C21.5311 55.2482 20.03 56.5415 18.693 57.635L18.7047 57.6703C20.241 56.9648 21.9885 56.2123 23.9353 55.3893L30.9133 52.4735L31.8516 54.7427L17.9776 60.5391L16.4061 56.7649L22.0706 51.7563C23.5952 50.4042 25.1081 49.1344 26.6209 47.9704L26.6092 47.9351C24.5921 48.182 22.6218 48.3702 20.7102 48.4995L13.1692 49.0168L11.6329 45.2427Z" fill="black"/>
<path d="M6.98659 31.1927L9.07413 30.5108L11.4197 37.671L15.2899 36.4012L13.0967 29.6877L15.1608 29.0058L17.3539 35.7193L21.529 34.3437L19.1248 26.9835L21.2124 26.3016L24.4023 36.072L10.1179 40.7632L6.98659 31.1927Z" fill="black"/>
<path d="M2.79114 15.2264L17.3688 11.5346L18.2601 15.0618L12.9591 19.7647C11.0827 21.4225 9.25314 22.9863 7.48225 24.4442L7.49395 24.4912C9.68705 23.8445 11.8801 23.2449 14.0967 22.6923L19.8316 21.2462L20.4297 23.6212L5.85207 27.313L4.96075 23.7623L10.2734 19.0828C12.1499 17.425 13.9794 15.8613 15.7503 14.4034L15.7386 14.3681C13.2992 15.0618 11.0944 15.6496 9.13587 16.1552L3.40097 17.6014L2.79114 15.2264Z" fill="black"/>
<path d="M-0.000694364 0.458386L2.15721 0.0586389L3.04854 4.9262L15.6676 2.60999L16.125 5.0908L3.49416 7.40701L4.38548 12.2746L2.22758 12.6743L-0.000694364 0.458386Z" fill="black"/>
</g>
<defs>
<clipPath id="clip0_811_4451">
<rect width="449.057" height="193.103" fill="white" transform="matrix(-1 0 0 -1 449.055 193.104)"/>
</clipPath>
</defs>
</svg>
