<svg width="286" height="286" viewBox="0 0 286 286" fill="none" xmlns="http://www.w3.org/2000/svg">
<circle cx="143" cy="143" r="143" fill="#00AEED"/>
<g clip-path="url(#clip0_834_968)">
<path d="M26.3973 80.6543L40.9624 87.4203L39.8247 89.8508L33.3178 86.8291L30.1961 93.5295L36.7029 96.5512L35.5651 99.0005L21 92.2344L22.1472 89.7851L28.0804 92.5441L31.2022 85.8438L25.2689 83.0848L26.3973 80.6543Z" fill="black"/>
<path d="M48.154 75.8489L43.6782 74.7697L40.1051 80.3815L42.9824 83.9663L41.4591 86.3593L31.0312 72.8366L32.9777 69.7773L49.6679 73.456L48.154 75.8489ZM38.563 78.439L41.2616 74.1973L39.964 73.8782C37.2184 73.2026 35.0557 72.6489 33.4572 72.2079L33.429 72.2454C35.2062 74.3193 36.6354 76.0366 37.7167 77.3973L38.563 78.439Z" fill="black"/>
<path d="M50.768 47.6211L62.8226 58.2159L50.1757 72.5456L38.1211 61.9508L39.9077 59.9238L50.2039 68.9702L53.8616 64.8318L43.5654 55.7854L45.3425 53.7771L55.6388 62.8235L59.2965 58.6851L49.0003 49.6387L50.768 47.6211Z" fill="black"/>
<path d="M68.6336 33.1133L70.0628 34.9714L65.8691 38.1808L74.2189 49.0383L72.0845 50.6712L63.7346 39.8042L59.5503 43.0136L58.1211 41.1556L68.6336 33.1133Z" fill="black"/>
<path d="M80.5578 25.8311L81.7707 27.8393L74.8878 31.9777L77.1351 35.7033L83.5949 31.8276L84.7985 33.817L78.3387 37.6927L80.7552 41.7092L87.8356 37.4581L89.0486 39.4663L79.6551 45.1156L71.3711 31.3771L80.5578 25.8311Z" fill="black"/>
<path d="M87.2237 22.5654L92.9407 35.0089L100.125 31.7244L101.102 33.8547L91.4644 38.2652L84.7695 23.6915L87.2237 22.5654Z" fill="black"/>
<path d="M107.985 14.6826L108.718 16.9067L101.083 19.4123L102.447 23.5413L109.612 21.1953L110.326 23.4006L103.161 25.7466L104.628 30.1947L112.47 27.6235L113.204 29.8475L102.785 33.2634L97.7734 18.0328L107.985 14.6826Z" fill="black"/>
<path d="M118.442 11.9802C120.304 11.6142 121.893 11.7925 123.2 12.4963C124.507 13.2002 125.401 14.3357 125.871 15.8747L123.031 16.4283C122.693 15.565 122.166 14.9456 121.461 14.589C120.756 14.2324 119.9 14.148 118.894 14.345C117.493 14.6172 116.487 15.3585 115.866 16.5785C115.255 17.789 115.123 19.3093 115.48 21.1392C115.838 22.9785 116.524 24.358 117.53 25.2589C118.536 26.1598 119.721 26.4882 121.094 26.2161C122.335 25.9721 123.238 25.4184 123.802 24.5363C124.366 23.6636 124.507 22.4812 124.235 20.9891L120.201 21.7773L119.768 19.5627L126.275 18.2958L127.939 26.8073L125.654 27.2483L125.269 25.3058L125.222 25.3152C124.93 26.0941 124.404 26.7604 123.652 27.3234C122.899 27.8865 121.978 28.2712 120.897 28.4777C118.875 28.8718 117.126 28.4589 115.659 27.2483C114.192 26.0378 113.205 24.1797 112.716 21.6741C112.218 19.1122 112.472 16.9632 113.487 15.2365C114.55 13.5005 116.186 12.4213 118.442 11.9802Z" fill="black"/>
<path d="M131.24 26.469L130.234 10.4689L135.754 10.1217C139.571 9.88712 141.565 11.2384 141.753 14.1945C141.819 15.1986 141.603 16.0713 141.114 16.8033C140.625 17.5446 139.929 18.0514 139.026 18.3329V18.3798C139.609 18.5394 140.079 18.8209 140.437 19.215C140.794 19.6186 141.179 20.3036 141.612 21.289L143.54 25.6995L140.587 25.8872L138.979 21.9458C138.603 21.0543 138.199 20.4444 137.747 20.1253C137.296 19.8062 136.666 19.6749 135.857 19.7218L133.535 19.8719L133.939 26.3001L131.24 26.469ZM135.594 12.3552L133.074 12.5147L133.394 17.6666L136.074 17.4977C137.155 17.432 137.935 17.1411 138.415 16.6438C138.894 16.137 139.101 15.4707 139.036 14.6262C138.932 12.9745 137.785 12.2238 135.594 12.3552Z" fill="black"/>
<path d="M156.045 26.413L154.822 21.9837L148.175 21.5801L146.426 25.8312L143.586 25.6623L150.403 10L154.033 10.2252L158.885 26.5819L156.045 26.413ZM149.134 19.2904L154.155 19.6001L153.807 18.3144C153.074 15.593 152.509 13.4252 152.124 11.8299H152.077C151.118 14.3918 150.309 16.4657 149.641 18.0704L149.134 19.2904Z" fill="black"/>
<path d="M180.596 14.6548L177.23 30.3358L174.673 29.7916L176.365 21.9088C176.835 19.7035 177.296 17.7328 177.729 15.978L177.682 15.9686C176.798 17.5733 175.745 19.4126 174.513 21.4677L170.093 28.8156L167.075 28.1681L166.069 19.6566C165.796 17.2824 165.589 15.1803 165.439 13.3504L165.392 13.341C165.072 15.1146 164.677 17.1041 164.207 19.3094L162.515 27.1921L159.957 26.6478L163.323 10.9668L167.583 11.8771L168.514 19.8818C168.777 22.0402 168.956 24.1329 169.059 26.1692L169.106 26.1786C170.122 24.2642 171.147 22.4249 172.209 20.6701L176.346 13.7445L180.596 14.6548Z" fill="black"/>
<path d="M203.088 23.5136L196.628 38.1999L194.164 37.1207L199.684 24.5834L193.111 21.7024L187.592 34.2397L185.109 33.1512L191.569 18.4648L203.088 23.5136Z" fill="black"/>
<path d="M199.676 39.8606L207.96 26.1221L212.934 29.1063C214.523 30.0541 215.51 31.1802 215.896 32.4564C216.281 33.7421 216.074 35.0371 215.285 36.3509C214.485 37.6741 213.432 38.4717 212.116 38.7345C210.799 38.9972 209.351 38.65 207.762 37.7022L205.111 36.1163L202.008 41.2682L199.676 39.8606ZM211.486 30.8893L209.107 29.4629L206.277 34.155L208.656 35.5814C210.536 36.7075 211.956 36.4916 212.896 34.9245C213.837 33.3573 213.366 32.0154 211.486 30.8893Z" fill="black"/>
<path d="M220.991 36.6132C222.965 36.266 224.855 36.8103 226.651 38.2367C228.447 39.6631 229.416 41.3804 229.519 43.3699C229.632 45.3687 228.88 47.3769 227.272 49.3945C225.664 51.4215 223.868 52.6039 221.903 52.9418C219.938 53.2796 218.038 52.7447 216.242 51.3183C214.446 49.8919 213.478 48.1746 213.374 46.1851C213.261 44.1863 214.014 42.1781 215.622 40.1604C217.22 38.1428 219.016 36.9604 220.991 36.6132ZM226.811 43.4918C226.821 42.1405 226.266 41.0144 225.147 40.1323C224.028 39.2502 222.805 38.9593 221.489 39.2783C220.173 39.5974 218.941 40.4701 217.803 41.9059C216.665 43.3417 216.082 44.7306 216.073 46.0913C216.064 47.4426 216.618 48.5687 217.737 49.4508C218.856 50.333 220.079 50.6239 221.395 50.3048C222.711 49.9857 223.943 49.113 225.081 47.6772C226.228 46.232 226.802 44.8432 226.811 43.4918Z" fill="black"/>
<path d="M243.483 59.1919C243.492 60.928 242.731 62.5045 241.207 63.9122C239.684 65.3198 238.057 65.9579 236.327 65.8266C234.588 65.6952 232.886 64.8131 231.212 63.1896L229.924 64.3814L228.128 62.4482L229.416 61.2564C227.93 59.4828 227.188 57.728 227.188 55.9919C227.188 54.2558 227.949 52.6886 229.463 51.2904C230.967 49.8921 232.594 49.254 234.334 49.376C236.073 49.498 237.766 50.3614 239.44 51.9754L240.728 50.7836L242.524 52.7168L241.235 53.9086C242.721 55.6916 243.473 57.4558 243.483 59.1919ZM234.484 52.0317C233.365 52.0036 232.322 52.4353 231.353 53.3362C230.385 54.237 229.877 55.2412 229.82 56.3579C229.773 57.4746 230.187 58.5913 231.071 59.7174L237.747 53.5238C236.694 52.5573 235.603 52.0693 234.484 52.0317ZM239.552 55.457L232.876 61.6506C233.948 62.6265 235.048 63.1333 236.167 63.1614C237.286 63.199 238.339 62.7673 239.308 61.8664C240.276 60.9655 240.784 59.9614 240.831 58.8353C240.869 57.7186 240.446 56.5925 239.552 55.457Z" fill="black"/>
<path d="M251.072 64.034L238.209 73.6434L236.582 71.4757L249.445 61.8662L251.072 64.034Z" fill="black"/>
<path d="M260.36 78.2886L246.67 86.6781L245.25 84.379L256.938 77.2094L254.248 72.8364C250.863 74.7695 248.23 76.0927 246.331 76.8059C244.441 77.5191 243.031 77.7631 242.1 77.5473C241.169 77.3314 240.379 76.6933 239.73 75.6329C239.514 75.2763 239.373 74.976 239.316 74.7508L241.225 73.5871C241.282 73.7279 241.338 73.8499 241.394 73.9531C241.648 74.366 241.94 74.6381 242.278 74.7883C242.617 74.9384 243.078 74.9666 243.67 74.9009C244.262 74.8258 245.052 74.5725 246.049 74.1314C247.036 73.6903 248.23 73.0991 249.631 72.3578C251.032 71.6164 252.781 70.6311 254.888 69.4111L260.36 78.2886Z" fill="black"/>
<path d="M250.631 95.0683L248.242 89.7944L262.883 83.1973L264.001 85.6559L258.51 88.1334L259.78 90.9486C260.541 92.6284 260.72 94.1111 260.297 95.3874C259.874 96.6636 258.971 97.6208 257.56 98.2496C256.159 98.8783 254.843 98.9252 253.611 98.3997C252.389 97.8554 251.392 96.7481 250.631 95.0683ZM256.432 89.0624L251.43 91.3146L252.577 93.839C253.48 95.8378 254.758 96.4572 256.423 95.7158C258.096 94.9651 258.482 93.5856 257.579 91.5868L256.432 89.0624Z" fill="black"/>
</g>
<g clip-path="url(#clip1_834_968)">
<path d="M258.603 206.346L244.038 199.58L245.175 197.149L251.682 200.171L254.804 193.471L248.297 190.449L249.435 188L264 194.766L262.853 197.215L256.92 194.456L253.798 201.156L259.731 203.915L258.603 206.346Z" fill="black"/>
<path d="M236.846 211.151L241.322 212.23L244.895 206.618L242.018 203.034L243.541 200.641L253.969 214.163L252.022 217.223L235.332 213.544L236.846 211.151ZM246.437 208.561L243.738 212.803L245.036 213.122C247.782 213.797 249.944 214.351 251.543 214.792L251.571 214.755C249.794 212.681 248.365 210.963 247.283 209.603L246.437 208.561Z" fill="black"/>
<path d="M234.232 239.379L222.177 228.784L234.824 214.454L246.879 225.049L245.092 227.076L234.796 218.03L231.138 222.168L241.435 231.215L239.657 233.223L229.361 224.176L225.703 228.315L236 237.361L234.232 239.379Z" fill="black"/>
<path d="M216.366 253.887L214.937 252.029L219.131 248.819L210.781 237.962L212.916 236.329L221.265 247.196L225.45 243.986L226.879 245.844L216.366 253.887Z" fill="black"/>
<path d="M204.442 261.169L203.229 259.161L210.112 255.022L207.865 251.297L201.405 255.172L200.202 253.183L206.661 249.307L204.245 245.291L197.164 249.542L195.951 247.534L205.345 241.884L213.629 255.623L204.442 261.169Z" fill="black"/>
<path d="M197.776 264.435L192.059 251.991L184.875 255.276L183.898 253.145L193.536 248.735L200.23 263.308L197.776 264.435Z" fill="black"/>
<path d="M177.015 272.317L176.282 270.093L183.917 267.588L182.553 263.459L175.388 265.805L174.674 263.599L181.839 261.253L180.372 256.805L172.53 259.377L171.796 257.152L182.215 253.737L187.227 268.967L177.015 272.317Z" fill="black"/>
<path d="M166.558 275.02C164.696 275.386 163.107 275.207 161.8 274.504C160.493 273.8 159.599 272.664 159.129 271.125L161.969 270.572C162.307 271.435 162.834 272.054 163.539 272.411C164.244 272.768 165.1 272.852 166.106 272.655C167.507 272.383 168.513 271.641 169.134 270.422C169.745 269.211 169.877 267.691 169.52 265.861C169.162 264.021 168.476 262.642 167.47 261.741C166.464 260.84 165.279 260.512 163.906 260.784C162.665 261.028 161.762 261.582 161.198 262.464C160.634 263.336 160.493 264.519 160.765 266.011L164.799 265.223L165.232 267.437L158.725 268.704L157.061 260.193L159.346 259.752L159.731 261.694L159.778 261.685C160.07 260.906 160.596 260.24 161.348 259.677C162.101 259.114 163.022 258.729 164.103 258.522C166.125 258.128 167.874 258.541 169.341 259.752C170.808 260.962 171.795 262.82 172.284 265.326C172.782 267.888 172.528 270.037 171.513 271.763C170.45 273.5 168.814 274.579 166.558 275.02Z" fill="black"/>
<path d="M153.76 260.531L154.766 276.531L149.246 276.878C145.429 277.113 143.435 275.762 143.247 272.806C143.181 271.801 143.397 270.929 143.886 270.197C144.375 269.455 145.071 268.949 145.974 268.667V268.62C145.391 268.461 144.921 268.179 144.563 267.785C144.206 267.381 143.821 266.696 143.388 265.711L141.46 261.3L144.413 261.113L146.021 265.054C146.397 265.946 146.801 266.556 147.253 266.875C147.704 267.194 148.334 267.325 149.143 267.278L151.465 267.128L151.061 260.7L153.76 260.531ZM149.406 274.645L151.926 274.485L151.606 269.333L148.926 269.502C147.845 269.568 147.065 269.859 146.585 270.356C146.106 270.863 145.899 271.529 145.964 272.374C146.068 274.025 147.215 274.776 149.406 274.645Z" fill="black"/>
<path d="M128.955 260.587L130.178 265.016L136.825 265.42L138.574 261.169L141.414 261.338L134.597 277L130.967 276.775L126.115 260.418L128.955 260.587ZM135.866 267.71L130.845 267.4L131.193 268.686C131.926 271.407 132.491 273.575 132.876 275.17H132.923C133.882 272.608 134.691 270.534 135.359 268.93L135.866 267.71Z" fill="black"/>
<path d="M104.404 272.345L107.77 256.664L110.327 257.208L108.635 265.091C108.165 267.296 107.704 269.267 107.271 271.022L107.318 271.031C108.202 269.427 109.255 267.587 110.487 265.532L114.907 258.184L117.925 258.832L118.931 267.343C119.204 269.718 119.411 271.82 119.561 273.65L119.608 273.659C119.928 271.885 120.323 269.896 120.793 267.691L122.485 259.808L125.043 260.352L121.677 276.033L117.417 275.123L116.486 267.118C116.223 264.96 116.044 262.867 115.941 260.831L115.894 260.821C114.878 262.736 113.853 264.575 112.791 266.33L108.654 273.255L104.404 272.345Z" fill="black"/>
<path d="M81.9122 263.486L88.372 248.8L90.8356 249.879L85.3161 262.417L91.8887 265.298L97.4083 252.76L99.8906 253.849L93.4308 268.535L81.9122 263.486Z" fill="black"/>
<path d="M85.3242 247.139L77.0402 260.878L72.0661 257.894C70.477 256.946 69.4897 255.82 69.1042 254.544C68.7186 253.258 68.9255 251.963 69.7154 250.649C70.5146 249.326 71.5677 248.528 72.8841 248.266C74.2006 248.003 75.6486 248.35 77.2377 249.298L79.8893 250.884L82.9923 245.732L85.3242 247.139ZM73.5141 256.111L75.8931 257.537L78.7234 252.845L76.3444 251.419C74.4638 250.293 73.044 250.508 72.1037 252.076C71.1634 253.643 71.6335 254.985 73.5141 256.111Z" fill="black"/>
<path d="M64.0093 250.387C62.0347 250.734 60.1447 250.19 58.3487 248.763C56.5528 247.337 55.5843 245.62 55.4808 243.63C55.368 241.631 56.1202 239.623 57.7281 237.605C59.336 235.578 61.132 234.396 63.0972 234.058C65.0624 233.72 66.9618 234.255 68.7578 235.682C70.5537 237.108 71.5222 238.825 71.6257 240.815C71.7385 242.814 70.9863 244.822 69.3784 246.84C67.7799 248.857 65.9839 250.04 64.0093 250.387ZM58.1889 243.508C58.1795 244.859 58.7343 245.986 59.8532 246.868C60.9722 247.75 62.1945 248.041 63.5109 247.722C64.8274 247.403 66.0591 246.53 67.1969 245.094C68.3346 243.658 68.9176 242.269 68.927 240.909C68.9364 239.557 68.3817 238.431 67.2627 237.549C66.1438 236.667 64.9214 236.376 63.605 236.695C62.2886 237.014 61.0568 237.887 59.919 239.323C58.7719 240.768 58.1983 242.157 58.1889 243.508Z" fill="black"/>
<path d="M41.5172 227.808C41.5078 226.072 42.2694 224.495 43.7927 223.088C45.316 221.68 46.9427 221.042 48.6728 221.173C50.4124 221.305 52.1143 222.187 53.788 223.81L55.0762 222.619L56.8722 224.552L55.584 225.744C57.0697 227.517 57.8125 229.272 57.8125 231.008C57.8125 232.744 57.0509 234.311 55.537 235.71C54.0325 237.108 52.4058 237.746 50.6663 237.624C48.9267 237.502 47.2342 236.639 45.5605 235.025L44.2723 236.216L42.4763 234.283L43.7645 233.091C42.2789 231.308 41.5266 229.544 41.5172 227.808ZM50.5158 234.968C51.6348 234.996 52.6785 234.565 53.647 233.664C54.6155 232.763 55.1233 231.759 55.1797 230.642C55.2267 229.525 54.813 228.409 53.9291 227.283L47.253 233.476C48.3061 234.443 49.3969 234.931 50.5158 234.968ZM45.4476 231.543L52.1237 225.349C51.0518 224.373 49.9516 223.867 48.8327 223.839C47.7137 223.801 46.6606 224.233 45.6921 225.134C44.7236 226.034 44.2159 227.039 44.1688 228.165C44.1312 229.281 44.5544 230.408 45.4476 231.543Z" fill="black"/>
<path d="M33.9281 222.966L46.7913 213.357L48.418 215.524L35.5548 225.134L33.9281 222.966Z" fill="black"/>
<path d="M24.6398 208.711L38.3305 200.322L39.7503 202.621L28.0625 209.791L30.7517 214.164C34.1368 212.23 36.7696 210.907 38.669 210.194C40.559 209.481 41.9694 209.237 42.9003 209.453C43.8312 209.669 44.6211 210.307 45.2699 211.367C45.4861 211.724 45.6272 212.024 45.6836 212.249L43.7748 213.413C43.7184 213.272 43.662 213.15 43.6055 213.047C43.3517 212.634 43.0602 212.362 42.7217 212.212C42.3832 212.062 41.9224 212.033 41.33 212.099C40.7376 212.174 39.9478 212.428 38.9511 212.869C37.9638 213.31 36.7696 213.901 35.3686 214.642C33.9675 215.384 32.2186 216.369 30.1123 217.589L24.6398 208.711Z" fill="black"/>
<path d="M34.3695 191.932L36.7578 197.206L22.1175 203.803L20.9985 201.344L26.4898 198.867L25.2204 196.051C24.4588 194.372 24.2801 192.889 24.7032 191.613C25.1264 190.336 26.0291 189.379 27.4395 188.75C28.8405 188.122 30.1569 188.075 31.3887 188.6C32.6111 189.145 33.6078 190.252 34.3695 191.932ZM28.5679 197.938L33.5702 195.685L32.4231 193.161C31.5204 191.162 30.2416 190.543 28.5773 191.284C26.9035 192.035 26.518 193.414 27.4207 195.413L28.5679 197.938Z" fill="black"/>
</g>
<circle cx="265.57" cy="143" r="4.08571" fill="black"/>
<circle cx="20.4295" cy="143" r="4.08571" fill="black"/>
<path d="M71.8874 138.922C84.7488 131.805 99.1719 125.797 112.585 119.79C135.735 109.992 158.886 100.287 182.404 91.3218C186.997 89.7505 195.173 88.2717 196 95.1113C195.541 104.724 193.795 114.336 192.509 123.856C189.386 144.93 185.711 165.911 182.128 186.892C180.934 193.916 172.206 197.521 166.603 192.992C153.19 183.934 139.777 174.876 126.548 165.634C122.231 161.197 126.273 154.82 130.131 151.677C141.155 140.771 152.822 131.435 163.295 119.974C166.143 113.135 157.783 118.865 155.027 120.621C139.961 131.066 125.262 142.157 109.277 151.4C101.193 155.929 91.6388 152.047 83.5545 149.551C76.297 146.594 65.6404 143.543 71.8874 138.922Z" fill="black"/>
<defs>
<clipPath id="clip0_834_968">
<rect width="243" height="89" fill="white" transform="translate(21 10)"/>
</clipPath>
<clipPath id="clip1_834_968">
<rect width="243" height="89" fill="white" transform="matrix(-1 0 0 -1 264 277)"/>
</clipPath>
</defs>
</svg>
