<svg width="284" height="284" viewBox="0 0 284 284" fill="none" xmlns="http://www.w3.org/2000/svg">
<circle cx="142" cy="142" r="142" fill="url(#paint0_radial_834_1019)"/>
<path d="M20.5581 92.9492L36.1539 98.3776L35.2517 100.963L28.2916 98.5068L25.8426 105.745L32.8028 108.2L31.9005 110.785L16.3047 105.357L17.2069 102.772L23.5226 104.969L25.9715 97.7314L19.6559 95.5342L20.5581 92.9492Z" fill="black"/>
<path d="M42.3417 85.7044L37.7016 85.0581L34.6082 91.1327L37.9594 94.4932L36.6705 97.0781L24.6836 84.1534L26.3592 80.793L43.7595 82.8609L42.3417 85.7044ZM32.8037 89.3233L35.1238 84.6704L33.8349 84.5411C30.9993 84.1534 28.6792 83.7657 27.0036 83.5072C29.0659 85.4459 30.6126 87.1261 31.9015 88.4185L32.8037 89.3233Z" fill="black"/>
<path d="M42.4674 56.3672L55.7432 66.19L44.143 82.0874L30.8672 72.2646L32.5428 70.0674L43.8852 78.4684L47.2364 73.8155L35.8939 65.4145L37.5695 63.2173L48.912 71.6183L52.2631 66.9655L40.7918 58.6936L42.4674 56.3672Z" fill="black"/>
<path d="M57.1677 42.2812L67.9946 54.8182L65.9323 56.6277L54.9766 44.0907L57.1677 42.2812Z" fill="black"/>
<path d="M72.3737 30.7793L81.9116 44.3502L78.6894 46.6767L71.7292 43.0578C69.2803 41.7653 66.9603 40.4728 64.7691 39.3096C66.3158 41.2483 67.7336 43.3163 69.1514 45.3842L72.8893 50.6833L70.6981 52.2343L61.1602 38.6634L64.3824 36.3369L71.2137 39.9558C73.6626 41.2483 75.9826 42.5408 78.1738 43.704C76.4982 41.5068 75.0804 39.4389 73.7915 37.6294L70.0537 32.3303L72.3737 30.7793Z" fill="black"/>
<path d="M81.5239 25.3552C83.3283 24.4505 84.875 24.192 86.1639 24.4505C87.4529 24.8382 88.6129 25.7429 89.3862 27.2939L86.9373 28.5864C86.4217 27.6817 85.9062 27.0354 85.1328 26.9062C84.3595 26.6477 83.5861 26.7769 82.555 27.2939C81.7816 27.6817 81.2661 28.1986 80.8794 28.8449C80.6216 29.4911 80.6216 30.0081 80.8794 30.6543C81.2661 31.3006 81.6528 31.6883 82.2972 31.6883C82.9417 31.6883 83.9728 31.5591 85.3906 31.3006C86.1639 31.1713 86.8084 31.0421 87.1951 30.9128C87.7106 30.7836 88.2262 30.7836 88.8707 30.7836C89.5151 30.7836 90.0307 30.7836 90.4174 31.0421C90.804 31.1713 91.3196 31.4298 91.7063 31.8176C92.0929 32.2053 92.4796 32.7223 92.8663 33.2393C93.5107 34.661 93.6396 35.9535 92.9952 37.2459C92.3507 38.5384 91.3196 39.7016 89.644 40.4771C87.8395 41.3818 86.1639 41.6403 84.7461 41.3818C83.3283 40.9941 82.1683 39.9601 81.2661 38.2799L83.8439 36.9874C84.875 39.0554 86.5506 39.5724 88.6129 38.4092C89.5151 37.8922 90.1596 37.3752 90.4174 36.7289C90.6751 36.0827 90.6751 35.4365 90.2885 34.661C89.9018 33.8855 89.3862 33.627 88.8707 33.4978C88.2262 33.4978 87.1951 33.627 85.7773 33.8855C85.0039 34.0148 84.3595 34.144 83.9728 34.2733C83.5861 34.4025 82.9417 34.4025 82.2972 34.4025C81.6528 34.4025 81.1372 34.4025 80.7505 34.2733C80.3638 34.144 79.9772 33.8855 79.4616 33.4978C79.0749 33.11 78.6883 32.7223 78.3016 32.0761C77.6571 30.7836 77.6571 29.6204 78.1727 28.3279C78.946 27.1647 79.9772 26.1307 81.5239 25.3552Z" fill="black"/>
<path d="M102.018 16.9473L102.92 19.2737L97.8935 21.2124L102.92 34.3956L100.342 35.4296L95.3157 22.1171L90.289 24.0559L89.3867 21.7294L102.018 16.9473Z" fill="black"/>
<path d="M118.385 29.8703L115.807 25.8636L109.105 27.5438L108.718 32.326L105.883 33.1015L107.558 15.5239L111.167 14.6191L121.092 29.2241L118.385 29.8703ZM109.363 24.9589L114.39 23.6664L113.616 22.5032C112.07 20.0475 110.781 18.1088 109.878 16.6871C109.75 19.5305 109.621 21.857 109.492 23.5372L109.363 24.9589Z" fill="black"/>
<path d="M126.767 11.5173C128.7 11.2588 130.376 11.6465 131.665 12.422C132.954 13.1975 133.727 14.4899 134.114 16.1701L131.149 16.5579C130.891 15.6532 130.376 15.0069 129.731 14.4899C129.087 14.1022 128.185 13.9729 127.154 13.9729C125.607 14.1022 124.576 14.7484 123.802 16.0409C123.029 17.2041 122.771 18.7551 123.029 20.6938C123.287 22.6325 123.802 24.0542 124.834 25.0882C125.865 26.1222 127.025 26.5099 128.443 26.3807C129.731 26.2514 130.763 25.7344 131.407 24.8297C132.052 23.925 132.309 22.7617 132.18 21.2108L127.927 21.7278L127.669 19.4013L134.372 18.6258L135.403 27.5439L133.083 27.8024L132.825 25.7344C132.438 26.5099 131.923 27.1561 131.02 27.6731C130.118 28.1901 129.216 28.4486 128.056 28.5779C125.994 28.8364 124.189 28.3194 122.771 26.8977C121.354 25.4759 120.451 23.5372 120.194 20.9523C119.936 18.2381 120.322 16.0409 121.482 14.3607C122.642 12.6805 124.447 11.7757 126.767 11.5173Z" fill="black"/>
<path d="M138.754 27.4167L139.012 10.873L144.683 11.0023C148.55 11.1315 150.483 12.6825 150.483 15.6552C150.483 16.6892 150.225 17.5939 149.581 18.2401C148.936 18.8864 148.292 19.4034 147.261 19.6618C147.905 19.9203 148.292 20.1788 148.679 20.6958C149.065 21.0836 149.323 21.859 149.71 22.893L151.256 27.5459H148.163L146.874 23.41C146.616 22.5053 146.23 21.859 145.714 21.4713C145.327 21.0836 144.683 20.9543 143.781 20.9543H141.332L141.203 27.5459L138.754 27.4167ZM144.425 13.3287H141.847L141.718 18.6279H144.425C145.585 18.6279 146.358 18.3694 146.874 17.9816C147.39 17.5939 147.647 16.8184 147.647 15.9137C147.776 14.2335 146.616 13.3287 144.425 13.3287Z" fill="black"/>
<path d="M164.143 29.616L163.37 24.9631L156.667 23.9291L154.476 28.1943L151.641 27.8065L160.019 12.2969L163.756 12.8139L167.236 30.133L164.143 29.616ZM157.699 21.6027L162.854 22.3781L162.596 21.0857C162.081 18.2422 161.694 15.9158 161.436 14.2356C160.276 16.8205 159.245 18.8885 158.343 20.4394L157.699 21.6027Z" fill="black"/>
<path d="M190.435 20.0498L185.408 35.818L182.83 35.0425L185.408 27.1584C186.181 24.9612 186.826 23.0225 187.47 21.213C186.439 22.764 185.15 24.5735 183.604 26.5122L178.319 33.6208L175.355 32.5868L175.226 23.798C175.226 21.3423 175.226 19.1451 175.226 17.2064C174.71 19.0158 174.066 20.9545 173.421 23.1517L170.843 31.0358L168.266 30.2603L173.292 14.4922L177.546 15.9139L177.675 24.1857C177.675 26.3829 177.675 28.5801 177.546 30.6481C178.835 28.8386 179.995 27.0292 181.284 25.3489L186.182 18.6281L190.435 20.0498Z" fill="black"/>
<path d="M212.603 31.6814L204.354 46.0279L201.905 44.6062L208.994 32.3277L202.55 28.5795L195.461 40.858L193.012 39.4363L201.261 25.0898L212.603 31.6814Z" fill="black"/>
<path d="M207.32 48.095L217.374 35.041L222.143 38.6599C223.689 39.8232 224.463 41.1156 224.721 42.4081C224.978 43.7006 224.592 45.1223 223.689 46.2855C222.658 47.578 221.498 48.2242 220.209 48.3535C218.792 48.4827 217.374 47.9657 215.827 46.8025L213.249 44.8638L209.511 49.7752L207.32 48.095ZM220.338 40.3401L218.018 38.5307L214.538 43.0543L216.858 44.8638C218.663 46.2855 220.081 46.1563 221.241 44.7345C222.529 43.1836 222.143 41.7619 220.338 40.3401Z" fill="black"/>
<path d="M229.489 47.4494C231.552 47.3201 233.356 48.0956 235.032 49.7758C236.707 51.4561 237.481 53.3948 237.352 55.4627C237.223 57.5307 236.192 59.4694 234.258 61.4081C232.325 63.2175 230.392 64.2515 228.329 64.3808C226.267 64.51 224.463 63.7345 222.787 62.0543C221.111 60.3741 220.338 58.4354 220.467 56.3674C220.596 54.2995 221.627 52.3608 223.56 50.4221C225.494 48.4834 227.427 47.4494 229.489 47.4494ZM234.516 55.2042C234.645 53.7825 234.258 52.6193 233.227 51.5853C232.196 50.5513 231.036 50.0343 229.618 50.2928C228.2 50.4221 226.912 51.1976 225.494 52.49C224.205 53.7825 223.431 55.2042 223.174 56.4967C223.045 57.9184 223.431 59.0816 224.463 60.1156C225.494 61.1496 226.654 61.6666 228.072 61.4081C229.489 61.2788 230.778 60.5034 232.196 59.2109C233.614 57.9184 234.387 56.6259 234.516 55.2042Z" fill="black"/>
<path d="M249.469 73.5598C249.211 75.3693 248.309 76.791 246.504 78.0835C244.829 79.3759 243.024 79.7637 241.22 79.3759C239.415 78.9882 237.869 77.825 236.322 76.0155L234.904 77.0495L233.357 74.8523L234.775 73.8183C233.486 71.7504 232.971 69.9409 233.229 68.1314C233.486 66.322 234.389 64.9003 236.193 63.6078C237.869 62.3153 239.673 61.9276 241.349 62.3153C243.153 62.7031 244.7 63.737 246.247 65.6757L247.664 64.6418L249.211 66.839L247.793 67.8729C249.211 69.8116 249.727 71.7504 249.469 73.5598ZM241.349 65.0295C240.189 64.9003 239.029 65.1588 237.997 65.9342C236.966 66.7097 236.193 67.7437 236.064 68.7777C235.935 69.8117 236.193 71.1041 236.837 72.3966L244.442 66.9682C243.54 65.805 242.509 65.1588 241.349 65.0295ZM245.989 69.1654L238.384 74.5938C239.286 75.757 240.446 76.4033 241.478 76.5325C242.509 76.6617 243.798 76.4033 244.829 75.6278C245.989 74.8523 246.633 73.8183 246.762 72.7843C247.02 71.6211 246.762 70.4579 245.989 69.1654Z" fill="black"/>
<path d="M256.686 79.6354L242.25 87.6487L240.961 85.193L255.397 77.1797L256.686 79.6354Z" fill="black"/>
<path d="M264.033 95.6571L248.824 102.249L247.664 99.6638L260.553 93.9769L258.49 89.0655C254.753 90.4872 251.917 91.5212 249.855 91.9089C247.792 92.2967 246.375 92.4259 245.472 92.0382C244.57 91.6504 243.797 90.875 243.281 89.7117C243.152 89.324 243.023 88.9363 243.023 88.807L245.086 87.9023C245.086 88.0315 245.215 88.1608 245.215 88.29C245.472 88.807 245.73 89.0655 245.988 89.324C246.246 89.5825 246.761 89.5825 247.406 89.5825C248.05 89.5825 248.824 89.4532 249.984 89.1947C251.015 88.9363 252.304 88.4193 253.85 87.9023C255.397 87.3853 257.33 86.6098 259.65 85.7051L264.033 95.6571Z" fill="black"/>
<path d="M251.66 111.426L249.984 105.61L265.838 101.086L266.611 103.8L260.682 105.48L261.585 108.582C262.1 110.392 262.1 111.943 261.456 113.235C260.811 114.528 259.78 115.303 258.233 115.691C256.687 116.079 255.398 115.949 254.238 115.174C253.078 114.398 252.176 113.235 251.66 111.426ZM258.491 106.127L253.078 107.678L253.851 110.392C254.496 112.589 255.656 113.364 257.46 112.847C259.265 112.33 259.909 111.038 259.265 108.841L258.491 106.127Z" fill="black"/>
<path d="M262.356 189.635L246.76 184.206L247.662 181.621L254.622 184.077L257.071 176.839L250.111 174.384L251.014 171.799L266.609 177.227L265.707 179.812L259.391 177.615L256.943 184.853L263.258 187.05L262.356 189.635Z" fill="black"/>
<path d="M240.572 196.88L245.212 197.526L248.306 191.451L244.955 188.091L246.244 185.506L258.23 198.431L256.555 201.791L239.155 199.723L240.572 196.88ZM250.11 193.261L247.79 197.914L249.079 198.043C251.915 198.431 254.235 198.818 255.91 199.077C253.848 197.138 252.301 195.458 251.013 194.165L250.11 193.261Z" fill="black"/>
<path d="M240.447 226.217L227.171 216.394L238.771 200.497L252.047 210.319L250.371 212.517L239.029 204.116L235.678 208.768L247.02 217.17L245.345 219.367L234.002 210.966L230.651 215.619L242.122 223.89L240.447 226.217Z" fill="black"/>
<path d="M225.746 240.303L214.919 227.766L216.982 225.956L227.938 238.493L225.746 240.303Z" fill="black"/>
<path d="M210.54 251.805L201.002 238.234L204.225 235.907L211.185 239.526C213.634 240.819 215.954 242.111 218.145 243.274C216.598 241.336 215.18 239.268 213.763 237.2L210.025 231.901L212.216 230.35L221.754 243.921L218.532 246.247L211.7 242.628C209.251 241.336 206.931 240.043 204.74 238.88C206.416 241.077 207.834 243.145 209.123 244.955L212.86 250.254L210.54 251.805Z" fill="black"/>
<path d="M201.39 257.229C199.586 258.134 198.039 258.392 196.75 258.134C195.461 257.746 194.301 256.841 193.528 255.29L195.977 253.998C196.492 254.902 197.008 255.549 197.781 255.678C198.555 255.936 199.328 255.807 200.359 255.29C201.132 254.902 201.648 254.385 202.035 253.739C202.292 253.093 202.292 252.576 202.035 251.93C201.648 251.283 201.261 250.896 200.617 250.896C199.972 250.896 198.941 251.025 197.523 251.283C196.75 251.413 196.106 251.542 195.719 251.671C195.203 251.8 194.688 251.8 194.043 251.8C193.399 251.8 192.883 251.8 192.497 251.542C192.11 251.413 191.594 251.154 191.208 250.766C190.821 250.379 190.434 249.862 190.048 249.345C189.403 247.923 189.274 246.631 189.919 245.338C190.563 244.046 191.594 242.882 193.27 242.107C195.075 241.202 196.75 240.944 198.168 241.202C199.586 241.59 200.746 242.624 201.648 244.304L199.07 245.597C198.039 243.529 196.363 243.012 194.301 244.175C193.399 244.692 192.754 245.209 192.497 245.855C192.239 246.501 192.239 247.148 192.626 247.923C193.012 248.698 193.528 248.957 194.043 249.086C194.688 249.086 195.719 248.957 197.137 248.698C197.91 248.569 198.555 248.44 198.941 248.311C199.328 248.181 199.972 248.181 200.617 248.181C201.261 248.181 201.777 248.181 202.164 248.311C202.55 248.44 202.937 248.698 203.452 249.086C203.839 249.474 204.226 249.862 204.612 250.508C205.257 251.8 205.257 252.964 204.741 254.256C203.968 255.419 202.937 256.453 201.39 257.229Z" fill="black"/>
<path d="M180.896 265.637L179.994 263.31L185.021 261.372L179.994 248.188L182.572 247.154L187.598 260.467L192.625 258.528L193.527 260.855L180.896 265.637Z" fill="black"/>
<path d="M164.529 252.714L167.107 256.72L173.809 255.04L174.196 250.258L177.031 249.483L175.356 267.06L171.747 267.965L161.822 253.36L164.529 252.714ZM173.551 257.625L168.524 258.918L169.298 260.081C170.844 262.536 172.133 264.475 173.036 265.897C173.165 263.053 173.293 260.727 173.422 259.047L173.551 257.625Z" fill="black"/>
<path d="M156.147 271.067C154.214 271.325 152.538 270.937 151.249 270.162C149.96 269.387 149.187 268.094 148.8 266.414L151.765 266.026C152.023 266.931 152.538 267.577 153.183 268.094C153.827 268.482 154.729 268.611 155.76 268.611C157.307 268.482 158.338 267.836 159.112 266.543C159.885 265.38 160.143 263.829 159.885 261.89C159.627 259.951 159.112 258.53 158.08 257.496C157.049 256.462 155.889 256.074 154.472 256.203C153.183 256.333 152.151 256.85 151.507 257.754C150.863 258.659 150.605 259.822 150.734 261.373L154.987 260.856L155.245 263.183L148.543 263.958L147.511 255.04L149.831 254.782L150.089 256.85C150.476 256.074 150.991 255.428 151.894 254.911C152.796 254.394 153.698 254.135 154.858 254.006C156.92 253.748 158.725 254.265 160.143 255.686C161.561 257.108 162.463 259.047 162.721 261.632C162.978 264.346 162.592 266.543 161.432 268.223C160.272 269.904 158.467 270.808 156.147 271.067Z" fill="black"/>
<path d="M144.16 255.167L143.902 271.711L138.231 271.582C134.364 271.452 132.431 269.901 132.431 266.929C132.431 265.895 132.689 264.99 133.333 264.344C133.978 263.698 134.622 263.181 135.653 262.922C135.009 262.664 134.622 262.405 134.236 261.888C133.849 261.5 133.591 260.725 133.204 259.691L131.658 255.038H134.751L136.04 259.174C136.298 260.079 136.684 260.725 137.2 261.113C137.587 261.5 138.231 261.63 139.133 261.63H141.582L141.711 255.038L144.16 255.167ZM138.489 269.255H141.067L141.196 263.956H138.489C137.329 263.956 136.556 264.215 136.04 264.602C135.524 264.99 135.267 265.766 135.267 266.67C135.138 268.351 136.298 269.255 138.489 269.255Z" fill="black"/>
<path d="M118.771 252.968L119.544 257.621L126.247 258.655L128.438 254.39L131.273 254.777L122.896 270.287L119.158 269.77L115.678 252.451L118.771 252.968ZM125.216 260.981L120.06 260.206L120.318 261.498C120.833 264.342 121.22 266.668 121.478 268.348C122.638 265.763 123.669 263.696 124.571 262.145L125.216 260.981Z" fill="black"/>
<path d="M92.4791 262.534L97.5059 246.766L100.084 247.542L97.5059 255.426C96.7326 257.623 96.0881 259.561 95.4436 261.371C96.4748 259.82 97.7637 258.011 99.3104 256.072L104.595 248.963L107.559 249.997L107.688 258.786C107.688 261.242 107.688 263.439 107.688 265.378C108.204 263.568 108.848 261.629 109.493 259.432L112.071 251.548L114.648 252.324L109.622 268.092L105.368 266.67L105.239 258.398C105.239 256.201 105.239 254.004 105.368 251.936C104.079 253.745 102.919 255.555 101.63 257.235L96.7326 263.956L92.4791 262.534Z" fill="black"/>
<path d="M70.3109 250.903L78.5599 236.556L81.0089 237.978L73.9198 250.256L80.3644 254.004L87.4534 241.726L89.9023 243.148L81.6533 257.494L70.3109 250.903Z" fill="black"/>
<path d="M75.5938 234.489L65.5402 247.543L60.7713 243.924C59.2246 242.761 58.4512 241.468 58.1934 240.176C57.9357 238.883 58.3223 237.462 59.2246 236.298C60.2557 235.006 61.4157 234.36 62.7046 234.231C64.1224 234.101 65.5402 234.618 67.0869 235.781L69.6647 237.72L73.4026 232.809L75.5938 234.489ZM62.5757 242.244L64.8958 244.053L68.3758 239.53L66.0558 237.72C64.2513 236.298 62.8335 236.428 61.6735 237.849C60.3846 239.4 60.7713 240.822 62.5757 242.244Z" fill="black"/>
<path d="M53.4247 235.135C51.3625 235.264 49.558 234.488 47.8824 232.808C46.2068 231.128 45.4335 229.189 45.5624 227.121C45.6913 225.053 46.7224 223.115 48.6558 221.176C50.5891 219.366 52.5225 218.332 54.5848 218.203C56.647 218.074 58.4515 218.849 60.1271 220.53C61.8027 222.21 62.576 224.149 62.4471 226.217C62.3182 228.284 61.2871 230.223 59.3537 232.162C57.4204 234.101 55.487 235.135 53.4247 235.135ZM48.398 227.38C48.2691 228.801 48.6558 229.965 49.6869 230.999C50.718 232.033 51.878 232.55 53.2958 232.291C54.7136 232.162 56.0026 231.386 57.4204 230.094C58.7093 228.801 59.4826 227.38 59.7404 226.087C59.8693 224.666 59.4826 223.502 58.4515 222.468C57.4204 221.434 56.2603 220.917 54.8425 221.176C53.4247 221.305 52.1358 222.081 50.718 223.373C49.3002 224.666 48.5269 225.958 48.398 227.38Z" fill="black"/>
<path d="M33.4453 209.024C33.7031 207.215 34.6053 205.793 36.4098 204.501C38.0853 203.208 39.8898 202.82 41.6943 203.208C43.4988 203.596 45.0455 204.759 46.5922 206.568L48.01 205.534L49.5567 207.732L48.1389 208.766C49.4278 210.834 49.9433 212.643 49.6856 214.453C49.4278 216.262 48.5255 217.684 46.7211 218.976C45.0455 220.269 43.241 220.656 41.5654 220.269C39.7609 219.881 38.2142 218.847 36.6676 216.908L35.2497 217.942L33.7031 215.745L35.1208 214.711C33.703 212.772 33.1875 210.834 33.4453 209.024ZM41.5654 217.554C42.7254 217.684 43.8855 217.425 44.9166 216.65C45.9477 215.874 46.7211 214.84 46.85 213.806C46.9788 212.772 46.7211 211.48 46.0766 210.187L38.472 215.616C39.3743 216.779 40.4054 217.425 41.5654 217.554ZM36.9253 213.419L44.5299 207.99C43.6277 206.827 42.4677 206.181 41.4365 206.051C40.4054 205.922 39.1165 206.181 38.0853 206.956C36.9253 207.732 36.2809 208.766 36.152 209.8C35.8942 210.963 36.152 212.126 36.9253 213.419Z" fill="black"/>
<path d="M26.2284 202.949L40.6642 194.935L41.9531 197.391L27.5173 205.404L26.2284 202.949Z" fill="black"/>
<path d="M18.8814 186.927L34.0905 180.335L35.2505 182.92L22.3614 188.607L24.4237 193.518C28.1615 192.097 30.9971 191.063 33.0594 190.675C35.1216 190.287 36.5394 190.158 37.4417 190.546C38.3439 190.934 39.1173 191.709 39.6328 192.872C39.7617 193.26 39.8906 193.648 39.8906 193.777L37.8284 194.682C37.8284 194.552 37.6995 194.423 37.6995 194.294C37.4417 193.777 37.1839 193.518 36.9261 193.26C36.6683 193.001 36.1528 193.001 35.5083 193.001C34.8639 193.001 34.0905 193.131 32.9305 193.389C31.8994 193.648 30.6104 194.165 29.0638 194.682C27.5171 195.199 25.5837 195.974 23.2636 196.879L18.8814 186.927Z" fill="black"/>
<path d="M31.2541 171.158L32.9297 176.974L17.0761 181.498L16.3027 178.784L22.2317 177.104L21.3295 174.002C20.8139 172.192 20.8139 170.641 21.4584 169.349C22.1028 168.056 23.134 167.281 24.6807 166.893C26.2274 166.505 27.5163 166.635 28.6763 167.41C29.8363 168.186 30.7385 169.349 31.2541 171.158ZM24.4229 176.457L29.8363 174.906L29.063 172.192C28.4185 169.995 27.2585 169.22 25.454 169.737C23.6495 170.254 23.0051 171.546 23.6495 173.743L24.4229 176.457Z" fill="black"/>
<circle cx="265.065" cy="142.001" r="4.05714" fill="black"/>
<circle cx="21.6353" cy="142.001" r="4.05714" fill="black"/>
<path d="M147.997 83.6719C154.562 83.6827 157.888 83.7174 160.763 83.803L161.895 83.8401C163.203 83.8865 164.493 83.9449 166.049 84.0178C172.256 84.3046 176.491 85.2865 180.21 86.7303C184.054 88.2129 187.302 90.2157 190.544 93.4581C193.781 96.7004 195.785 99.9574 197.272 103.793C198.711 107.507 199.693 111.746 199.985 117.953C200.054 119.509 200.11 120.799 200.156 122.107L200.193 123.239C200.278 126.114 200.317 129.441 200.329 136.006L200.334 140.356C200.335 140.887 200.335 141.435 200.335 142.001L200.334 143.647L200.33 147.997C200.319 154.562 200.285 157.888 200.199 160.763L200.162 161.895C200.116 163.203 200.057 164.493 199.985 166.049C199.698 172.256 198.711 176.491 197.272 180.21C195.789 184.054 193.781 187.302 190.544 190.544C187.302 193.781 184.04 195.785 180.21 197.272C176.491 198.711 172.256 199.693 166.049 199.985C164.493 200.054 163.203 200.11 161.895 200.156L160.763 200.193C157.888 200.278 154.562 200.317 147.997 200.329L143.647 200.334C143.115 200.335 142.567 200.335 142.001 200.335L140.356 200.334L136.006 200.33C129.441 200.319 126.114 200.285 123.239 200.199L122.107 200.162C120.799 200.116 119.509 200.057 117.953 199.985C111.746 199.698 107.516 198.711 103.793 197.272C99.9525 195.789 96.7004 193.781 93.4581 190.544C90.2157 187.302 88.2178 184.04 86.7303 180.21C85.2865 176.491 84.3095 172.256 84.0178 166.049C83.9485 164.493 83.892 163.203 83.8462 161.895L83.8095 160.763C83.7241 157.888 83.6852 154.562 83.6726 147.997L83.6719 136.006C83.6827 129.441 83.7174 126.114 83.803 123.239L83.8401 122.107C83.8865 120.799 83.9449 119.509 84.0178 117.953C84.3046 111.741 85.2865 107.512 86.7303 103.793C88.2129 99.9525 90.2157 96.7004 93.4581 93.4581C96.7004 90.2157 99.9574 88.2178 103.793 86.7303C107.512 85.2865 111.741 84.3095 117.953 84.0178C119.509 83.9485 120.799 83.892 122.107 83.8462L123.239 83.8095C126.114 83.7241 129.441 83.6852 136.006 83.6726L147.997 83.6719ZM142.001 112.834C125.884 112.834 112.834 125.898 112.834 142.001C112.834 158.118 125.898 171.168 142.001 171.168C158.118 171.168 171.168 158.104 171.168 142.001C171.168 125.884 158.104 112.834 142.001 112.834ZM142.001 124.501C151.666 124.501 159.501 132.333 159.501 142.001C159.501 151.666 151.669 159.501 142.001 159.501C132.336 159.501 124.501 151.669 124.501 142.001C124.501 132.336 132.333 124.501 142.001 124.501ZM172.626 104.084C168.605 104.084 165.335 107.351 165.335 111.371C165.335 115.392 168.601 118.663 172.626 118.663C176.647 118.663 179.918 115.397 179.918 111.371C179.918 107.351 176.641 104.079 172.626 104.084Z" fill="black"/>
<defs>
<radialGradient id="paint0_radial_834_1019" cx="0" cy="0" r="1" gradientUnits="userSpaceOnUse" gradientTransform="translate(62 266.5) rotate(-69.9048) scale(283.775)">
<stop stop-color="#FFDC55"/>
<stop offset="0.46875" stop-color="#E34574"/>
<stop offset="1" stop-color="#505CCB"/>
</radialGradient>
</defs>
</svg>
