<svg width="102" height="104" viewBox="0 0 102 104" fill="none" xmlns="http://www.w3.org/2000/svg">
<path d="M51 0L58.8915 17.4252L73.562 5.14962L73.1114 24.2731L91.6552 19.5785L82.952 36.6127L101.696 40.4289L86.464 52L101.696 63.5711L82.952 67.3873L91.6552 84.4215L73.1114 79.7269L73.562 98.8504L58.8915 86.5748L51 104L43.1085 86.5748L28.438 98.8504L28.8886 79.7269L10.3448 84.4215L19.048 67.3873L0.303749 63.5711L15.536 52L0.303749 40.4289L19.048 36.6127L10.3448 19.5785L28.8886 24.2731L28.438 5.14962L43.1085 17.4252L51 0Z" fill="black"/>
</svg>
