<svg width="26" height="26" viewBox="0 0 26 26" fill="none" xmlns="http://www.w3.org/2000/svg">
<path d="M4.58465 1V0.5H4.26086L4.1284 0.795461L4.58465 1ZM21.4217 1L21.8783 0.796344L21.7461 0.5H21.4217V1ZM1 8.99602L0.54375 8.79148L0.227902 9.49602H1V8.99602ZM4.57024 8.99602L5.02649 9.20056L5.34234 8.49602H4.57024V8.99602ZM1 16.9599L0.54375 16.7553L0.227902 17.4599H1V16.9599ZM4.57305 16.9599L5.02997 17.1629L5.34239 16.4599H4.57305V16.9599ZM1 25.0004L0.543084 24.7973L0.230663 25.5004H1V25.0004ZM24.9999 25.0004V25.5004H25.7677L25.4572 24.7982L24.9999 25.0004ZM21.4454 16.9599V16.4599H20.6777L20.9881 17.1621L21.4454 16.9599ZM24.9878 16.9599V17.4599H25.7582L25.4444 16.7562L24.9878 16.9599ZM21.436 8.99602V8.49602H20.6655L20.9793 9.19967L21.436 8.99602ZM24.9878 8.99602V9.49602H25.7582L25.4444 8.79236L24.9878 8.99602ZM4.58465 1.5H21.4217V0.5H4.58465V1.5ZM1.45625 9.20056L5.0409 1.20454L4.1284 0.795461L0.54375 8.79148L1.45625 9.20056ZM4.57024 8.49602H1V9.49602H4.57024V8.49602ZM4.11399 8.79148L0.54375 16.7553L1.45625 17.1644L5.02649 9.20056L4.11399 8.79148ZM1 17.4599H4.57305V16.4599H1V17.4599ZM1.45692 25.2034L5.02997 17.1629L4.11614 16.7568L0.543084 24.7973L1.45692 25.2034ZM24.9999 24.5004H1V25.5004H24.9999V24.5004ZM20.9881 17.1621L24.5426 25.2026L25.4572 24.7982L21.9027 16.7577L20.9881 17.1621ZM21.4454 17.4599H24.9878V16.4599H21.4454V17.4599ZM25.4444 16.7562L21.8926 8.79236L20.9793 9.19967L24.5311 17.1635L25.4444 16.7562ZM24.9878 8.49602H21.436V9.49602H24.9878V8.49602ZM20.965 1.20366L24.5311 9.19967L25.4444 8.79236L21.8783 0.796344L20.965 1.20366Z" fill="white"/>
</svg>
