<svg width="26" height="28" viewBox="0 0 26 28" fill="none" xmlns="http://www.w3.org/2000/svg">
<path d="M13 2L14.8211 6.02119L18.2066 3.18837L18.1026 7.60149L22.382 6.51812L20.3735 10.4491L24.6991 11.3297L21.184 14L24.6991 16.6703L20.3735 17.5509L22.382 21.4819L18.1026 20.3985L18.2066 24.8116L14.8211 21.9788L13 26L11.1789 21.9788L7.7934 24.8116L7.89736 20.3985L3.61802 21.4819L5.62647 17.5509L1.30087 16.6703L4.816 14L1.30087 11.3297L5.62647 10.4491L3.61802 6.51812L7.89736 7.60149L7.7934 3.18837L11.1789 6.02119L13 2Z" stroke="white"/>
</svg>
