<svg width="112" height="112" viewBox="0 0 112 112" fill="none" xmlns="http://www.w3.org/2000/svg">
<path d="M56 112C86.9279 112 112 99.464 112 84C112 68.536 86.9279 56 56 56C25.0721 56 0 68.536 0 84C0 99.464 25.0721 112 56 112Z" fill="white"/>
<path d="M56 49.3559C86.9279 49.3559 112 43.4065 112 36.0677C112 28.7289 86.9279 22.7795 56 22.7795C25.0721 22.7795 0 28.7289 0 36.0677C0 43.4065 25.0721 49.3559 56 49.3559Z" fill="white"/>
<path d="M56 13.2882C86.9279 13.2882 112 10.3135 112 6.64408C112 2.97465 86.9279 0 56 0C25.0721 0 0 2.97465 0 6.64408C0 10.3135 25.0721 13.2882 56 13.2882Z" fill="white"/>
</svg>
