<svg width="112" height="112" viewBox="0 0 112 112" fill="none" xmlns="http://www.w3.org/2000/svg">
<path d="M56 0L64.4985 18.7656L80.2975 5.54574L79.8123 26.1403L99.7826 21.0846L90.4098 39.4291L110.596 43.5388L94.192 56L110.596 68.4612L90.4098 72.5709L99.7826 90.9154L79.8123 85.8597L80.2975 106.454L64.4985 93.2345L56 112L47.5015 93.2345L31.7025 106.454L32.1877 85.8597L12.2174 90.9154L21.5902 72.5709L1.40404 68.4612L17.808 56L1.40404 43.5388L21.5902 39.4291L12.2174 21.0846L32.1877 26.1403L31.7025 5.54574L47.5015 18.7656L56 0Z" fill="white"/>
</svg>
