<svg width="222" height="218" viewBox="0 0 222 218" fill="none" xmlns="http://www.w3.org/2000/svg">
<path d="M96.8267 51.3723C99.0549 28.9706 100.169 17.7697 101.307 15.7326C105.586 8.07423 116.605 8.07423 120.884 15.7326C122.023 17.7697 123.137 28.9706 125.365 51.3723C125.809 55.8392 126.031 58.0726 126.635 59.5652C128.802 64.922 134.684 67.7549 140.223 66.1091C141.767 65.6505 143.651 64.4316 147.421 61.9939C166.324 49.7687 175.776 43.6561 178.079 43.2758C186.734 41.8463 193.604 50.4616 190.285 58.5818C189.402 60.7419 181.339 68.5965 165.214 84.3059C161.999 87.4383 160.391 89.0045 159.6 90.4071C156.763 95.441 158.216 101.807 162.957 105.111C164.277 106.032 166.405 106.745 170.661 108.172C192.006 115.33 202.678 118.908 204.411 120.471C210.925 126.347 208.473 137.09 200.054 139.557C197.815 140.214 186.647 138.808 164.311 135.995C159.857 135.434 157.63 135.154 156.041 135.41C150.336 136.331 146.265 141.435 146.637 147.202C146.741 148.808 147.51 150.917 149.048 155.134C156.76 176.284 160.616 186.86 160.475 189.189C159.942 197.945 150.014 202.726 142.836 197.683C140.927 196.341 135.063 186.733 123.336 167.517C120.997 163.685 119.828 161.769 118.637 160.686C114.36 156.8 107.831 156.8 103.555 160.686C102.363 161.769 101.194 163.685 98.8556 167.517C87.1283 186.733 81.2647 196.341 79.3553 197.683C72.1774 202.726 62.2492 197.945 61.7169 189.189C61.5753 186.86 65.4315 176.284 73.1437 155.134C74.6815 150.917 75.4504 148.808 75.5541 147.202C75.9262 141.435 71.8552 136.331 66.1506 135.41C64.5611 135.154 62.3342 135.434 57.8805 135.995C35.5445 138.808 24.3766 140.214 22.1373 139.557C13.7188 137.09 11.2667 126.347 17.7809 120.471C19.5137 118.908 30.1859 115.33 51.5302 108.172C55.7862 106.745 57.9142 106.032 59.235 105.111C63.9753 101.807 65.4282 95.441 62.5911 90.4071C61.8006 89.0045 60.1929 87.4383 56.9775 84.3059C40.8524 68.5965 32.7898 60.7419 31.9067 58.5818C28.587 50.4616 35.4576 41.8463 44.1129 43.2758C46.4152 43.6561 55.8671 49.7687 74.7707 61.9939C78.5401 64.4316 80.4248 65.6505 81.9681 66.1091C87.5071 67.7549 93.3899 64.922 95.5566 59.5652C96.1603 58.0726 96.3824 55.8392 96.8267 51.3723Z" fill="white"/>
</svg>
